<?xml version="1.0" encoding="UTF-8"?>
<svg xmlns="http://www.w3.org/2000/svg" xmlns:xlink="http://www.w3.org/1999/xlink" width="1920" height="1080" viewBox="0 0 1920 1080">
<defs>
<g>
<g id="glyph-0-0">
<path d="M 1 0.03125 C 0.75 0.03125 0.554688 -0.0507812 0.421875 -0.21875 C 0.285156 -0.394531 0.21875 -0.664062 0.21875 -1.03125 C 0.21875 -1.414062 0.285156 -1.691406 0.421875 -1.859375 C 0.554688 -2.035156 0.75 -2.125 1 -2.125 C 1.15625 -2.125 1.28125 -2.09375 1.375 -2.03125 C 1.46875 -1.96875 1.546875 -1.882812 1.609375 -1.78125 L 1.625 -1.78125 C 1.613281 -1.84375 1.609375 -1.910156 1.609375 -1.984375 C 1.609375 -2.066406 1.609375 -2.140625 1.609375 -2.203125 L 1.609375 -2.53125 C 1.609375 -2.644531 1.570312 -2.71875 1.5 -2.75 C 1.4375 -2.78125 1.363281 -2.796875 1.28125 -2.796875 L 1.25 -2.796875 L 1.25 -2.953125 L 1.96875 -2.953125 L 1.96875 -0.421875 C 1.96875 -0.304688 2 -0.234375 2.0625 -0.203125 C 2.125 -0.171875 2.195312 -0.15625 2.28125 -0.15625 L 2.3125 -0.15625 L 2.3125 0 L 1.65625 0 L 1.625 -0.34375 L 1.609375 -0.34375 C 1.546875 -0.226562 1.46875 -0.132812 1.375 -0.0625 C 1.28125 0 1.15625 0.03125 1 0.03125 Z M 1.078125 -0.203125 C 1.273438 -0.203125 1.410156 -0.269531 1.484375 -0.40625 C 1.566406 -0.550781 1.609375 -0.757812 1.609375 -1.03125 C 1.609375 -1.300781 1.566406 -1.507812 1.484375 -1.65625 C 1.410156 -1.800781 1.269531 -1.875 1.0625 -1.875 C 0.894531 -1.875 0.773438 -1.800781 0.703125 -1.65625 C 0.628906 -1.507812 0.59375 -1.300781 0.59375 -1.03125 C 0.59375 -0.757812 0.628906 -0.550781 0.703125 -0.40625 C 0.773438 -0.269531 0.898438 -0.203125 1.078125 -0.203125 Z "/>
</g>
<g id="glyph-0-1">
<path d="M 1.109375 0.03125 C 0.828125 0.03125 0.609375 -0.0546875 0.453125 -0.234375 C 0.296875 -0.421875 0.21875 -0.6875 0.21875 -1.03125 C 0.21875 -1.394531 0.289062 -1.664062 0.4375 -1.84375 C 0.59375 -2.03125 0.804688 -2.125 1.078125 -2.125 C 1.328125 -2.125 1.523438 -2.046875 1.671875 -1.890625 C 1.816406 -1.734375 1.890625 -1.5 1.890625 -1.1875 L 1.890625 -1.015625 L 0.59375 -1.015625 C 0.59375 -0.734375 0.640625 -0.523438 0.734375 -0.390625 C 0.835938 -0.265625 0.984375 -0.203125 1.171875 -0.203125 C 1.304688 -0.203125 1.421875 -0.226562 1.515625 -0.28125 C 1.609375 -0.34375 1.679688 -0.410156 1.734375 -0.484375 C 1.742188 -0.472656 1.753906 -0.453125 1.765625 -0.421875 C 1.785156 -0.398438 1.796875 -0.375 1.796875 -0.34375 C 1.796875 -0.289062 1.769531 -0.234375 1.71875 -0.171875 C 1.675781 -0.117188 1.601562 -0.0703125 1.5 -0.03125 C 1.394531 0.0078125 1.265625 0.03125 1.109375 0.03125 Z M 1.5 -1.21875 C 1.5 -1.425781 1.460938 -1.59375 1.390625 -1.71875 C 1.328125 -1.851562 1.21875 -1.921875 1.0625 -1.921875 C 0.925781 -1.921875 0.816406 -1.859375 0.734375 -1.734375 C 0.660156 -1.617188 0.613281 -1.445312 0.59375 -1.21875 Z "/>
</g>
<g id="glyph-0-2">
<path d="M 0.0625 0.9375 L 0.0625 0.765625 L 0.09375 0.765625 C 0.1875 0.765625 0.265625 0.75 0.328125 0.71875 C 0.390625 0.6875 0.421875 0.609375 0.421875 0.484375 L 0.421875 -1.65625 C 0.421875 -1.769531 0.390625 -1.84375 0.328125 -1.875 C 0.265625 -1.90625 0.1875 -1.921875 0.09375 -1.921875 L 0.046875 -1.921875 L 0.046875 -2.078125 L 0.734375 -2.078125 L 0.765625 -1.734375 L 0.78125 -1.734375 C 0.84375 -1.859375 0.921875 -1.953125 1.015625 -2.015625 C 1.109375 -2.085938 1.226562 -2.125 1.375 -2.125 C 1.632812 -2.125 1.832031 -2.035156 1.96875 -1.859375 C 2.101562 -1.691406 2.171875 -1.421875 2.171875 -1.046875 C 2.171875 -0.671875 2.101562 -0.394531 1.96875 -0.21875 C 1.832031 -0.0507812 1.632812 0.03125 1.375 0.03125 C 1.226562 0.03125 1.109375 0 1.015625 -0.0625 C 0.921875 -0.125 0.84375 -0.203125 0.78125 -0.296875 L 0.765625 -0.296875 C 0.773438 -0.222656 0.78125 -0.144531 0.78125 -0.0625 C 0.78125 0.0195312 0.78125 0.0859375 0.78125 0.140625 L 0.78125 0.515625 C 0.78125 0.628906 0.8125 0.695312 0.875 0.71875 C 0.9375 0.75 1.015625 0.765625 1.109375 0.765625 L 1.109375 0.9375 Z M 1.3125 -0.203125 C 1.488281 -0.203125 1.613281 -0.273438 1.6875 -0.421875 C 1.757812 -0.566406 1.796875 -0.773438 1.796875 -1.046875 C 1.796875 -1.328125 1.757812 -1.535156 1.6875 -1.671875 C 1.613281 -1.804688 1.488281 -1.875 1.3125 -1.875 C 1.113281 -1.875 0.972656 -1.804688 0.890625 -1.671875 C 0.816406 -1.535156 0.78125 -1.328125 0.78125 -1.046875 C 0.78125 -0.773438 0.816406 -0.566406 0.890625 -0.421875 C 0.972656 -0.273438 1.113281 -0.203125 1.3125 -0.203125 Z "/>
</g>
<g id="glyph-0-3">
<path d="M 1.109375 0.03125 C 0.835938 0.03125 0.617188 -0.0546875 0.453125 -0.234375 C 0.296875 -0.410156 0.21875 -0.679688 0.21875 -1.046875 C 0.21875 -1.410156 0.289062 -1.679688 0.4375 -1.859375 C 0.59375 -2.035156 0.820312 -2.125 1.125 -2.125 C 1.40625 -2.125 1.625 -2.035156 1.78125 -1.859375 C 1.945312 -1.679688 2.03125 -1.410156 2.03125 -1.046875 C 2.03125 -0.679688 1.953125 -0.410156 1.796875 -0.234375 C 1.640625 -0.0546875 1.410156 0.03125 1.109375 0.03125 Z M 1.125 -0.15625 C 1.320312 -0.15625 1.457031 -0.226562 1.53125 -0.375 C 1.613281 -0.53125 1.65625 -0.753906 1.65625 -1.046875 C 1.65625 -1.335938 1.613281 -1.554688 1.53125 -1.703125 C 1.445312 -1.847656 1.3125 -1.921875 1.125 -1.921875 C 0.925781 -1.921875 0.785156 -1.847656 0.703125 -1.703125 C 0.628906 -1.554688 0.59375 -1.335938 0.59375 -1.046875 C 0.59375 -0.753906 0.628906 -0.53125 0.703125 -0.375 C 0.785156 -0.226562 0.925781 -0.15625 1.125 -0.15625 Z "/>
</g>
<g id="glyph-0-4">
<path d="M 0.8125 0.03125 C 0.625 0.03125 0.46875 0 0.34375 -0.0625 C 0.226562 -0.132812 0.171875 -0.238281 0.171875 -0.375 C 0.171875 -0.445312 0.1875 -0.5 0.21875 -0.53125 C 0.25 -0.570312 0.28125 -0.597656 0.3125 -0.609375 C 0.351562 -0.628906 0.390625 -0.640625 0.421875 -0.640625 C 0.421875 -0.503906 0.453125 -0.382812 0.515625 -0.28125 C 0.578125 -0.1875 0.6875 -0.140625 0.84375 -0.140625 C 0.976562 -0.140625 1.082031 -0.171875 1.15625 -0.234375 C 1.226562 -0.304688 1.265625 -0.394531 1.265625 -0.5 C 1.265625 -0.5625 1.25 -0.613281 1.21875 -0.65625 C 1.195312 -0.695312 1.148438 -0.738281 1.078125 -0.78125 C 1.015625 -0.820312 0.921875 -0.867188 0.796875 -0.921875 C 0.660156 -0.984375 0.546875 -1.039062 0.453125 -1.09375 C 0.367188 -1.15625 0.304688 -1.222656 0.265625 -1.296875 C 0.222656 -1.367188 0.203125 -1.460938 0.203125 -1.578125 C 0.203125 -1.753906 0.269531 -1.890625 0.40625 -1.984375 C 0.539062 -2.078125 0.71875 -2.125 0.9375 -2.125 C 1.125 -2.125 1.265625 -2.085938 1.359375 -2.015625 C 1.453125 -1.941406 1.5 -1.859375 1.5 -1.765625 C 1.5 -1.691406 1.472656 -1.632812 1.421875 -1.59375 C 1.378906 -1.550781 1.3125 -1.53125 1.21875 -1.53125 C 1.21875 -1.65625 1.191406 -1.753906 1.140625 -1.828125 C 1.085938 -1.898438 1.003906 -1.9375 0.890625 -1.9375 C 0.753906 -1.9375 0.65625 -1.90625 0.59375 -1.84375 C 0.539062 -1.789062 0.515625 -1.71875 0.515625 -1.625 C 0.515625 -1.53125 0.550781 -1.457031 0.625 -1.40625 C 0.695312 -1.351562 0.820312 -1.289062 1 -1.21875 C 1.132812 -1.15625 1.242188 -1.097656 1.328125 -1.046875 C 1.421875 -0.992188 1.484375 -0.925781 1.515625 -0.84375 C 1.554688 -0.769531 1.578125 -0.679688 1.578125 -0.578125 C 1.578125 -0.367188 1.503906 -0.210938 1.359375 -0.109375 C 1.222656 -0.015625 1.039062 0.03125 0.8125 0.03125 Z "/>
</g>
<g id="glyph-0-5">
<path d="M 0.625 -2.46875 C 0.5625 -2.46875 0.507812 -2.484375 0.46875 -2.515625 C 0.425781 -2.554688 0.40625 -2.625 0.40625 -2.71875 C 0.40625 -2.8125 0.425781 -2.875 0.46875 -2.90625 C 0.507812 -2.9375 0.5625 -2.953125 0.625 -2.953125 C 0.6875 -2.953125 0.738281 -2.9375 0.78125 -2.90625 C 0.820312 -2.875 0.84375 -2.8125 0.84375 -2.71875 C 0.84375 -2.625 0.820312 -2.554688 0.78125 -2.515625 C 0.738281 -2.484375 0.6875 -2.46875 0.625 -2.46875 Z M 0.09375 0 L 0.09375 -0.15625 L 0.140625 -0.15625 C 0.222656 -0.15625 0.296875 -0.171875 0.359375 -0.203125 C 0.421875 -0.234375 0.453125 -0.304688 0.453125 -0.421875 L 0.453125 -1.65625 C 0.453125 -1.769531 0.421875 -1.84375 0.359375 -1.875 C 0.296875 -1.90625 0.222656 -1.921875 0.140625 -1.921875 L 0.125 -1.921875 L 0.125 -2.078125 L 0.828125 -2.078125 L 0.828125 -0.4375 C 0.828125 -0.320312 0.859375 -0.242188 0.921875 -0.203125 C 0.984375 -0.171875 1.054688 -0.15625 1.140625 -0.15625 L 1.1875 -0.15625 L 1.1875 0 Z "/>
</g>
<g id="glyph-0-6">
<path d="M 0.9375 0.03125 C 0.738281 0.03125 0.59375 -0.0078125 0.5 -0.09375 C 0.414062 -0.1875 0.375 -0.34375 0.375 -0.5625 L 0.375 -1.859375 L 0.078125 -1.859375 L 0.078125 -2.015625 C 0.117188 -2.015625 0.164062 -2.023438 0.21875 -2.046875 C 0.28125 -2.066406 0.332031 -2.097656 0.375 -2.140625 C 0.414062 -2.191406 0.453125 -2.25 0.484375 -2.3125 C 0.515625 -2.382812 0.539062 -2.46875 0.5625 -2.5625 L 0.734375 -2.5625 L 0.734375 -2.078125 L 1.25 -2.078125 L 1.25 -1.859375 L 0.734375 -1.859375 L 0.734375 -0.546875 C 0.734375 -0.421875 0.757812 -0.328125 0.8125 -0.265625 C 0.875 -0.203125 0.945312 -0.171875 1.03125 -0.171875 C 1.070312 -0.171875 1.113281 -0.171875 1.15625 -0.171875 C 1.195312 -0.179688 1.238281 -0.1875 1.28125 -0.1875 L 1.28125 -0.015625 C 1.25 -0.00390625 1.195312 0.00390625 1.125 0.015625 C 1.0625 0.0234375 1 0.03125 0.9375 0.03125 Z "/>
</g>
<g id="glyph-0-7">
<path d="M 0.5625 -1.578125 C 0.488281 -1.578125 0.425781 -1.59375 0.375 -1.625 C 0.332031 -1.664062 0.3125 -1.738281 0.3125 -1.84375 C 0.3125 -1.9375 0.332031 -2.003906 0.375 -2.046875 C 0.425781 -2.085938 0.488281 -2.109375 0.5625 -2.109375 C 0.625 -2.109375 0.679688 -2.085938 0.734375 -2.046875 C 0.785156 -2.003906 0.8125 -1.9375 0.8125 -1.84375 C 0.8125 -1.738281 0.785156 -1.664062 0.734375 -1.625 C 0.679688 -1.59375 0.625 -1.578125 0.5625 -1.578125 Z M 0.5625 0.03125 C 0.488281 0.03125 0.425781 0.0078125 0.375 -0.03125 C 0.332031 -0.0703125 0.3125 -0.140625 0.3125 -0.234375 C 0.3125 -0.335938 0.332031 -0.40625 0.375 -0.4375 C 0.425781 -0.476562 0.488281 -0.5 0.5625 -0.5 C 0.625 -0.5 0.679688 -0.476562 0.734375 -0.4375 C 0.785156 -0.40625 0.8125 -0.335938 0.8125 -0.234375 C 0.8125 -0.140625 0.785156 -0.0703125 0.734375 -0.03125 C 0.679688 0.0078125 0.625 0.03125 0.5625 0.03125 Z "/>
</g>
<g id="glyph-0-8">
</g>
<g id="glyph-0-9">
<path d="M 0.984375 -0.15625 C 0.742188 -0.15625 0.554688 -0.203125 0.421875 -0.296875 C 0.285156 -0.390625 0.21875 -0.519531 0.21875 -0.6875 C 0.21875 -0.757812 0.238281 -0.820312 0.28125 -0.875 C 0.332031 -0.925781 0.40625 -0.953125 0.5 -0.953125 C 0.519531 -0.835938 0.546875 -0.734375 0.578125 -0.640625 C 0.609375 -0.546875 0.65625 -0.46875 0.71875 -0.40625 C 0.78125 -0.351562 0.867188 -0.328125 0.984375 -0.328125 L 0.984375 -1.28125 C 0.828125 -1.351562 0.695312 -1.425781 0.59375 -1.5 C 0.5 -1.570312 0.429688 -1.648438 0.390625 -1.734375 C 0.347656 -1.828125 0.328125 -1.925781 0.328125 -2.03125 C 0.328125 -2.207031 0.382812 -2.347656 0.5 -2.453125 C 0.625 -2.566406 0.785156 -2.632812 0.984375 -2.65625 L 0.984375 -2.953125 L 1.171875 -2.953125 L 1.171875 -2.65625 C 1.410156 -2.65625 1.578125 -2.613281 1.671875 -2.53125 C 1.773438 -2.445312 1.828125 -2.34375 1.828125 -2.21875 C 1.828125 -2.132812 1.796875 -2.070312 1.734375 -2.03125 C 1.679688 -1.988281 1.609375 -1.96875 1.515625 -1.96875 C 1.515625 -2.039062 1.503906 -2.113281 1.484375 -2.1875 C 1.472656 -2.269531 1.441406 -2.335938 1.390625 -2.390625 C 1.335938 -2.441406 1.265625 -2.472656 1.171875 -2.484375 L 1.171875 -1.578125 C 1.328125 -1.503906 1.457031 -1.429688 1.5625 -1.359375 C 1.675781 -1.296875 1.757812 -1.21875 1.8125 -1.125 C 1.875 -1.039062 1.90625 -0.9375 1.90625 -0.8125 C 1.90625 -0.625 1.84375 -0.472656 1.71875 -0.359375 C 1.59375 -0.253906 1.410156 -0.1875 1.171875 -0.15625 L 1.171875 0.3125 L 0.984375 0.3125 Z M 0.984375 -2.46875 C 0.878906 -2.445312 0.800781 -2.398438 0.75 -2.328125 C 0.695312 -2.253906 0.671875 -2.164062 0.671875 -2.0625 C 0.671875 -1.957031 0.695312 -1.875 0.75 -1.8125 C 0.800781 -1.757812 0.878906 -1.707031 0.984375 -1.65625 Z M 1.171875 -0.34375 C 1.296875 -0.363281 1.390625 -0.410156 1.453125 -0.484375 C 1.515625 -0.554688 1.546875 -0.648438 1.546875 -0.765625 C 1.546875 -0.867188 1.515625 -0.953125 1.453125 -1.015625 C 1.398438 -1.078125 1.304688 -1.140625 1.171875 -1.203125 Z "/>
</g>
<g id="glyph-0-10">
<path d="M 1.0625 0.03125 C 0.863281 0.03125 0.695312 0 0.5625 -0.0625 C 0.4375 -0.125 0.335938 -0.210938 0.265625 -0.328125 C 0.203125 -0.441406 0.171875 -0.566406 0.171875 -0.703125 C 0.171875 -0.828125 0.195312 -0.929688 0.25 -1.015625 C 0.300781 -1.097656 0.375 -1.171875 0.46875 -1.234375 C 0.5625 -1.296875 0.660156 -1.351562 0.765625 -1.40625 C 0.617188 -1.488281 0.5 -1.585938 0.40625 -1.703125 C 0.3125 -1.816406 0.265625 -1.957031 0.265625 -2.125 C 0.265625 -2.238281 0.289062 -2.347656 0.34375 -2.453125 C 0.40625 -2.566406 0.5 -2.65625 0.625 -2.71875 C 0.75 -2.78125 0.910156 -2.8125 1.109375 -2.8125 C 1.347656 -2.8125 1.535156 -2.75 1.671875 -2.625 C 1.804688 -2.5 1.875 -2.335938 1.875 -2.140625 C 1.875 -1.972656 1.828125 -1.84375 1.734375 -1.75 C 1.640625 -1.65625 1.507812 -1.566406 1.34375 -1.484375 C 1.539062 -1.398438 1.695312 -1.296875 1.8125 -1.171875 C 1.9375 -1.054688 2 -0.914062 2 -0.75 C 2 -0.5 1.910156 -0.304688 1.734375 -0.171875 C 1.566406 -0.0351562 1.34375 0.03125 1.0625 0.03125 Z M 1.15625 -1.578125 C 1.300781 -1.648438 1.398438 -1.726562 1.453125 -1.8125 C 1.503906 -1.90625 1.53125 -2.019531 1.53125 -2.15625 C 1.53125 -2.238281 1.515625 -2.316406 1.484375 -2.390625 C 1.453125 -2.460938 1.40625 -2.519531 1.34375 -2.5625 C 1.28125 -2.613281 1.191406 -2.640625 1.078125 -2.640625 C 0.941406 -2.640625 0.832031 -2.59375 0.75 -2.5 C 0.675781 -2.414062 0.640625 -2.304688 0.640625 -2.171875 C 0.640625 -2.023438 0.679688 -1.910156 0.765625 -1.828125 C 0.859375 -1.742188 0.988281 -1.660156 1.15625 -1.578125 Z M 1.078125 -0.140625 C 1.242188 -0.140625 1.378906 -0.1875 1.484375 -0.28125 C 1.585938 -0.382812 1.640625 -0.507812 1.640625 -0.65625 C 1.640625 -0.789062 1.585938 -0.90625 1.484375 -1 C 1.378906 -1.101562 1.203125 -1.207031 0.953125 -1.3125 C 0.835938 -1.25 0.742188 -1.164062 0.671875 -1.0625 C 0.597656 -0.957031 0.5625 -0.832031 0.5625 -0.6875 C 0.5625 -0.519531 0.601562 -0.382812 0.6875 -0.28125 C 0.78125 -0.1875 0.910156 -0.140625 1.078125 -0.140625 Z "/>
</g>
<g id="glyph-0-11">
<path d="M 0.109375 0.4375 C 0.359375 0.351562 0.484375 0.234375 0.484375 0.078125 C 0.484375 0.046875 0.46875 0.0195312 0.4375 0 C 0.414062 -0.0195312 0.382812 -0.0390625 0.34375 -0.0625 C 0.300781 -0.0820312 0.265625 -0.109375 0.234375 -0.140625 C 0.210938 -0.171875 0.203125 -0.210938 0.203125 -0.265625 C 0.203125 -0.347656 0.222656 -0.40625 0.265625 -0.4375 C 0.316406 -0.476562 0.378906 -0.5 0.453125 -0.5 C 0.535156 -0.5 0.601562 -0.46875 0.65625 -0.40625 C 0.71875 -0.351562 0.75 -0.269531 0.75 -0.15625 C 0.75 0 0.703125 0.144531 0.609375 0.28125 C 0.515625 0.425781 0.347656 0.53125 0.109375 0.59375 Z "/>
</g>
<g id="glyph-0-12">
<path d="M 1.09375 0.03125 C 0.875 0.03125 0.695312 -0.0234375 0.5625 -0.140625 C 0.425781 -0.253906 0.328125 -0.421875 0.265625 -0.640625 C 0.203125 -0.859375 0.171875 -1.109375 0.171875 -1.390625 C 0.171875 -1.679688 0.203125 -1.929688 0.265625 -2.140625 C 0.328125 -2.359375 0.425781 -2.523438 0.5625 -2.640625 C 0.695312 -2.753906 0.875 -2.8125 1.09375 -2.8125 C 1.289062 -2.8125 1.457031 -2.753906 1.59375 -2.640625 C 1.726562 -2.523438 1.828125 -2.359375 1.890625 -2.140625 C 1.960938 -1.929688 2 -1.679688 2 -1.390625 C 2 -1.109375 1.960938 -0.859375 1.890625 -0.640625 C 1.828125 -0.421875 1.726562 -0.253906 1.59375 -0.140625 C 1.457031 -0.0234375 1.289062 0.03125 1.09375 0.03125 Z M 1.09375 -0.171875 C 1.28125 -0.171875 1.410156 -0.273438 1.484375 -0.484375 C 1.554688 -0.703125 1.59375 -1.003906 1.59375 -1.390625 C 1.59375 -1.773438 1.554688 -2.070312 1.484375 -2.28125 C 1.410156 -2.5 1.28125 -2.609375 1.09375 -2.609375 C 0.90625 -2.609375 0.769531 -2.5 0.6875 -2.28125 C 0.613281 -2.070312 0.578125 -1.773438 0.578125 -1.390625 C 0.578125 -1.003906 0.613281 -0.703125 0.6875 -0.484375 C 0.769531 -0.273438 0.90625 -0.171875 1.09375 -0.171875 Z "/>
</g>
</g>
</defs>
<g fill="rgb(100%, 100%, 100%)" fill-opacity="1">
<use xlink:href="#glyph-0-0" x="30" y="24.158203"/>
<use xlink:href="#glyph-0-1" x="32" y="24.158203"/>
<use xlink:href="#glyph-0-2" x="34" y="24.158203"/>
<use xlink:href="#glyph-0-3" x="36" y="24.158203"/>
<use xlink:href="#glyph-0-4" x="38" y="24.158203"/>
<use xlink:href="#glyph-0-5" x="40" y="24.158203"/>
<use xlink:href="#glyph-0-6" x="41" y="24.158203"/>
<use xlink:href="#glyph-0-7" x="42" y="24.158203"/>
<use xlink:href="#glyph-0-8" x="43" y="24.158203"/>
<use xlink:href="#glyph-0-9" x="44" y="24.158203"/>
<use xlink:href="#glyph-0-10" x="46" y="24.158203"/>
<use xlink:href="#glyph-0-11" x="48" y="24.158203"/>
<use xlink:href="#glyph-0-12" x="49" y="24.158203"/>
<use xlink:href="#glyph-0-12" x="51" y="24.158203"/>
<use xlink:href="#glyph-0-12" x="53" y="24.158203"/>
</g>
</svg>
