<?xml version="1.0" encoding="UTF-8"?>
<svg xmlns="http://www.w3.org/2000/svg" xmlns:xlink="http://www.w3.org/1999/xlink" width="1920" height="1080" viewBox="0 0 1920 1080">
<defs>
<g>
<g id="glyph-0-0">
<path d="M 0.421875 0 L 0.421875 -0.1875 L 0.71875 -0.1875 C 0.820312 -0.1875 0.910156 -0.203125 0.984375 -0.234375 C 1.054688 -0.273438 1.09375 -0.363281 1.09375 -0.5 L 1.09375 -2.828125 C 0.976562 -2.691406 0.875 -2.582031 0.78125 -2.5 C 0.6875 -2.414062 0.597656 -2.375 0.515625 -2.375 C 0.453125 -2.375 0.398438 -2.394531 0.359375 -2.4375 C 0.316406 -2.476562 0.296875 -2.535156 0.296875 -2.609375 C 0.378906 -2.640625 0.46875 -2.675781 0.5625 -2.71875 C 0.664062 -2.769531 0.789062 -2.847656 0.9375 -2.953125 L 1.25 -3.1875 L 1.53125 -3.1875 L 1.53125 -0.5 C 1.53125 -0.363281 1.566406 -0.273438 1.640625 -0.234375 C 1.710938 -0.203125 1.800781 -0.1875 1.90625 -0.1875 L 2.109375 -0.1875 L 2.109375 0 Z "/>
</g>
</g>
</defs>
<g fill="rgb(18.039216%, 80%, 44.313725%)" fill-opacity="1">
<use xlink:href="#glyph-0-0" x="30" y="24.750977"/>
</g>
</svg>
