<?xml version="1.0" encoding="UTF-8"?>
<svg xmlns="http://www.w3.org/2000/svg" xmlns:xlink="http://www.w3.org/1999/xlink" width="1920" height="1080" viewBox="0 0 1920 1080">
<defs>
<g>
<g id="glyph-0-0">
<path d="M 1.359375 0.0625 C 1.085938 0.0625 0.875 0.03125 0.71875 -0.03125 C 0.5625 -0.09375 0.453125 -0.164062 0.390625 -0.25 C 0.335938 -0.34375 0.3125 -0.425781 0.3125 -0.5 C 0.3125 -0.601562 0.335938 -0.679688 0.390625 -0.734375 C 0.453125 -0.796875 0.539062 -0.828125 0.65625 -0.828125 C 0.65625 -0.671875 0.707031 -0.535156 0.8125 -0.421875 C 0.925781 -0.316406 1.097656 -0.265625 1.328125 -0.265625 C 1.484375 -0.265625 1.617188 -0.296875 1.734375 -0.359375 C 1.859375 -0.421875 1.953125 -0.519531 2.015625 -0.65625 C 2.085938 -0.789062 2.125 -0.976562 2.125 -1.21875 C 2.125 -1.507812 2.046875 -1.722656 1.890625 -1.859375 C 1.734375 -2.003906 1.53125 -2.078125 1.28125 -2.078125 C 1.082031 -2.078125 0.9375 -2.0625 0.84375 -2.03125 C 0.75 -2.007812 0.664062 -1.984375 0.59375 -1.953125 L 0.46875 -2 L 0.640625 -3.96875 L 2.5 -3.96875 L 2.53125 -3.125 L 2.296875 -3.125 L 2.265625 -3.296875 C 2.253906 -3.378906 2.226562 -3.4375 2.1875 -3.46875 C 2.15625 -3.507812 2.082031 -3.53125 1.96875 -3.53125 L 0.890625 -3.53125 L 0.78125 -2.296875 C 0.84375 -2.316406 0.925781 -2.335938 1.03125 -2.359375 C 1.132812 -2.378906 1.269531 -2.390625 1.4375 -2.390625 C 1.675781 -2.390625 1.890625 -2.34375 2.078125 -2.25 C 2.273438 -2.164062 2.425781 -2.035156 2.53125 -1.859375 C 2.644531 -1.691406 2.703125 -1.476562 2.703125 -1.21875 C 2.703125 -0.957031 2.648438 -0.734375 2.546875 -0.546875 C 2.441406 -0.359375 2.285156 -0.207031 2.078125 -0.09375 C 1.878906 0.0078125 1.640625 0.0625 1.359375 0.0625 Z "/>
</g>
</g>
</defs>
<g fill="rgb(100%, 100%, 100%)" fill-opacity="1">
<use xlink:href="#glyph-0-0" x="30" y="25.939453"/>
</g>
</svg>
