<?xml version="1.0" encoding="UTF-8"?>
<svg xmlns="http://www.w3.org/2000/svg" xmlns:xlink="http://www.w3.org/1999/xlink" width="1920" height="1080" viewBox="0 0 1920 1080">
<defs>
<g>
<g id="glyph-0-0">
<path d="M 0.34375 0 L 0.34375 -0.40625 L 1.265625 -1.484375 C 1.460938 -1.710938 1.617188 -1.910156 1.734375 -2.078125 C 1.847656 -2.242188 1.929688 -2.398438 1.984375 -2.546875 C 2.035156 -2.703125 2.0625 -2.867188 2.0625 -3.046875 C 2.0625 -3.253906 2.015625 -3.421875 1.921875 -3.546875 C 1.828125 -3.679688 1.679688 -3.75 1.484375 -3.75 C 1.316406 -3.75 1.1875 -3.707031 1.09375 -3.625 C 1.007812 -3.550781 0.953125 -3.453125 0.921875 -3.328125 C 0.890625 -3.203125 0.875 -3.066406 0.875 -2.921875 C 0.738281 -2.921875 0.625 -2.945312 0.53125 -3 C 0.445312 -3.050781 0.40625 -3.144531 0.40625 -3.28125 C 0.40625 -3.5 0.492188 -3.675781 0.671875 -3.8125 C 0.859375 -3.957031 1.128906 -4.03125 1.484375 -4.03125 C 1.835938 -4.03125 2.113281 -3.941406 2.3125 -3.765625 C 2.519531 -3.597656 2.625 -3.375 2.625 -3.09375 C 2.625 -2.832031 2.539062 -2.578125 2.375 -2.328125 C 2.207031 -2.085938 1.976562 -1.804688 1.6875 -1.484375 L 0.75 -0.4375 L 2.03125 -0.4375 C 2.195312 -0.4375 2.3125 -0.476562 2.375 -0.5625 C 2.4375 -0.65625 2.476562 -0.753906 2.5 -0.859375 L 2.53125 -0.96875 L 2.765625 -0.96875 L 2.734375 0 Z "/>
</g>
</g>
</defs>
<g fill="rgb(100%, 100%, 100%)" fill-opacity="1">
<use xlink:href="#glyph-0-0" x="30" y="25.939453"/>
</g>
</svg>
