<?xml version="1.0" encoding="UTF-8"?>
<svg xmlns="http://www.w3.org/2000/svg" xmlns:xlink="http://www.w3.org/1999/xlink" width="1920" height="1080" viewBox="0 0 1920 1080">
<defs>
<g>
<g id="glyph-0-0">
<path d="M 0.53125 0 L 0.53125 -0.234375 L 0.90625 -0.234375 C 1.03125 -0.234375 1.132812 -0.253906 1.21875 -0.296875 C 1.3125 -0.347656 1.359375 -0.460938 1.359375 -0.640625 L 1.359375 -3.546875 C 1.222656 -3.378906 1.097656 -3.238281 0.984375 -3.125 C 0.867188 -3.019531 0.753906 -2.96875 0.640625 -2.96875 C 0.554688 -2.96875 0.488281 -2.992188 0.4375 -3.046875 C 0.382812 -3.109375 0.359375 -3.1875 0.359375 -3.28125 C 0.472656 -3.3125 0.59375 -3.351562 0.71875 -3.40625 C 0.84375 -3.46875 0.992188 -3.566406 1.171875 -3.703125 L 1.5625 -4 L 1.921875 -4 L 1.921875 -0.640625 C 1.921875 -0.460938 1.960938 -0.347656 2.046875 -0.296875 C 2.140625 -0.253906 2.25 -0.234375 2.375 -0.234375 L 2.65625 -0.234375 L 2.65625 0 Z "/>
</g>
</g>
</defs>
<g fill="rgb(100%, 100%, 100%)" fill-opacity="1">
<use xlink:href="#glyph-0-0" x="30" y="25.939453"/>
</g>
</svg>
