<?xml version="1.0" encoding="UTF-8"?>
<svg xmlns="http://www.w3.org/2000/svg" xmlns:xlink="http://www.w3.org/1999/xlink" width="1920" height="1080" viewBox="0 0 1920 1080">
<defs>
<g>
<g id="glyph-0-0">
<path d="M 0.25 0 L 0.25 -0.28125 L 0.34375 -0.28125 C 0.488281 -0.28125 0.613281 -0.304688 0.71875 -0.359375 C 0.832031 -0.410156 0.890625 -0.535156 0.890625 -0.734375 L 0.890625 -4.03125 C 0.890625 -4.226562 0.832031 -4.351562 0.71875 -4.40625 C 0.613281 -4.457031 0.488281 -4.484375 0.34375 -4.484375 L 0.25 -4.484375 L 0.25 -4.765625 L 3.609375 -4.765625 L 3.65625 -3.59375 L 3.296875 -3.59375 L 3.265625 -3.890625 C 3.253906 -4.035156 3.203125 -4.160156 3.109375 -4.265625 C 3.015625 -4.378906 2.863281 -4.4375 2.65625 -4.4375 L 1.5625 -4.4375 L 1.5625 -2.5 L 3.171875 -2.5 L 3.171875 -2.171875 L 1.5625 -2.171875 L 1.5625 -0.765625 C 1.5625 -0.554688 1.613281 -0.421875 1.71875 -0.359375 C 1.820312 -0.304688 1.953125 -0.28125 2.109375 -0.28125 L 2.328125 -0.28125 L 2.328125 0 Z "/>
</g>
<g id="glyph-0-1">
<path d="M 0.25 0 L 0.25 -0.28125 L 0.34375 -0.28125 C 0.488281 -0.28125 0.613281 -0.304688 0.71875 -0.359375 C 0.832031 -0.410156 0.890625 -0.535156 0.890625 -0.734375 L 0.890625 -4.03125 C 0.890625 -4.226562 0.832031 -4.351562 0.71875 -4.40625 C 0.613281 -4.457031 0.488281 -4.484375 0.34375 -4.484375 L 0.25 -4.484375 L 0.25 -4.765625 L 2.046875 -4.765625 C 3.191406 -4.765625 3.765625 -4.332031 3.765625 -3.46875 C 3.765625 -3.238281 3.710938 -3.039062 3.609375 -2.875 C 3.515625 -2.71875 3.390625 -2.585938 3.234375 -2.484375 C 3.085938 -2.390625 2.9375 -2.316406 2.78125 -2.265625 L 3.703125 -0.8125 C 3.816406 -0.632812 3.925781 -0.5 4.03125 -0.40625 C 4.132812 -0.320312 4.253906 -0.28125 4.390625 -0.28125 L 4.421875 -0.28125 L 4.421875 0 L 4.328125 0 C 4.046875 0 3.828125 -0.015625 3.671875 -0.046875 C 3.523438 -0.078125 3.40625 -0.132812 3.3125 -0.21875 C 3.21875 -0.300781 3.117188 -0.425781 3.015625 -0.59375 L 2.109375 -2.109375 L 1.5625 -2.109375 L 1.5625 -0.734375 C 1.5625 -0.535156 1.613281 -0.410156 1.71875 -0.359375 C 1.832031 -0.304688 1.960938 -0.28125 2.109375 -0.28125 L 2.1875 -0.28125 L 2.1875 0 Z M 2.03125 -2.421875 C 2.414062 -2.421875 2.679688 -2.503906 2.828125 -2.671875 C 2.972656 -2.847656 3.046875 -3.109375 3.046875 -3.453125 C 3.046875 -3.804688 2.96875 -4.054688 2.8125 -4.203125 C 2.65625 -4.359375 2.390625 -4.4375 2.015625 -4.4375 L 1.5625 -4.4375 L 1.5625 -2.421875 Z "/>
</g>
<g id="glyph-0-2">
<path d="M 0 0 L 0 -0.28125 L 0.125 -0.28125 C 0.25 -0.28125 0.34375 -0.3125 0.40625 -0.375 C 0.476562 -0.445312 0.554688 -0.585938 0.640625 -0.796875 L 2.109375 -4.765625 L 2.640625 -4.765625 L 4.140625 -0.640625 C 4.191406 -0.492188 4.25 -0.394531 4.3125 -0.34375 C 4.382812 -0.300781 4.484375 -0.28125 4.609375 -0.28125 L 4.703125 -0.28125 L 4.703125 0 L 2.875 0 L 2.875 -0.28125 L 3.015625 -0.28125 C 3.285156 -0.28125 3.421875 -0.382812 3.421875 -0.59375 C 3.421875 -0.632812 3.414062 -0.675781 3.40625 -0.71875 C 3.394531 -0.757812 3.382812 -0.800781 3.375 -0.84375 L 3.109375 -1.59375 L 1.34375 -1.59375 L 1.09375 -0.890625 C 1.050781 -0.785156 1.03125 -0.691406 1.03125 -0.609375 C 1.03125 -0.390625 1.175781 -0.28125 1.46875 -0.28125 L 1.625 -0.28125 L 1.625 0 Z M 1.46875 -1.921875 L 2.984375 -1.921875 L 2.5625 -3.09375 C 2.5 -3.289062 2.4375 -3.472656 2.375 -3.640625 C 2.3125 -3.816406 2.265625 -3.988281 2.234375 -4.15625 C 2.203125 -3.988281 2.160156 -3.832031 2.109375 -3.6875 C 2.066406 -3.539062 2.003906 -3.363281 1.921875 -3.15625 Z "/>
</g>
<g id="glyph-0-3">
<path d="M 2.421875 0.0625 C 1.890625 0.0625 1.472656 -0.0507812 1.171875 -0.28125 C 0.878906 -0.507812 0.734375 -0.894531 0.734375 -1.4375 L 0.734375 -4.03125 C 0.734375 -4.226562 0.675781 -4.351562 0.5625 -4.40625 C 0.457031 -4.457031 0.332031 -4.484375 0.1875 -4.484375 L 0.09375 -4.484375 L 0.09375 -4.765625 L 2.046875 -4.765625 L 2.046875 -4.484375 L 1.953125 -4.484375 C 1.804688 -4.484375 1.675781 -4.453125 1.5625 -4.390625 C 1.457031 -4.335938 1.40625 -4.207031 1.40625 -4 L 1.40625 -1.40625 C 1.40625 -1.019531 1.507812 -0.742188 1.71875 -0.578125 C 1.925781 -0.410156 2.191406 -0.328125 2.515625 -0.328125 C 2.898438 -0.328125 3.179688 -0.425781 3.359375 -0.625 C 3.546875 -0.820312 3.640625 -1.070312 3.640625 -1.375 L 3.640625 -4.03125 C 3.640625 -4.226562 3.582031 -4.351562 3.46875 -4.40625 C 3.363281 -4.457031 3.238281 -4.484375 3.09375 -4.484375 L 3.015625 -4.484375 L 3.015625 -4.765625 L 4.6875 -4.765625 L 4.6875 -4.484375 L 4.59375 -4.484375 C 4.445312 -4.484375 4.316406 -4.453125 4.203125 -4.390625 C 4.097656 -4.335938 4.046875 -4.207031 4.046875 -4 L 4.046875 -1.359375 C 4.046875 -0.910156 3.90625 -0.5625 3.625 -0.3125 C 3.34375 -0.0625 2.941406 0.0625 2.421875 0.0625 Z "/>
</g>
<g id="glyph-0-4">
<path d="M 0.25 0 L 0.25 -0.28125 L 0.34375 -0.28125 C 0.488281 -0.28125 0.613281 -0.304688 0.71875 -0.359375 C 0.832031 -0.421875 0.890625 -0.554688 0.890625 -0.765625 L 0.890625 -4.03125 C 0.890625 -4.226562 0.832031 -4.351562 0.71875 -4.40625 C 0.613281 -4.457031 0.488281 -4.484375 0.34375 -4.484375 L 0.25 -4.484375 L 0.25 -4.765625 L 2.296875 -4.765625 C 2.984375 -4.765625 3.515625 -4.554688 3.890625 -4.140625 C 4.273438 -3.722656 4.46875 -3.140625 4.46875 -2.390625 C 4.46875 -1.898438 4.382812 -1.476562 4.21875 -1.125 C 4.0625 -0.769531 3.820312 -0.492188 3.5 -0.296875 C 3.175781 -0.0976562 2.773438 0 2.296875 0 Z M 2.140625 -0.34375 C 2.671875 -0.34375 3.066406 -0.519531 3.328125 -0.875 C 3.597656 -1.226562 3.734375 -1.734375 3.734375 -2.390625 C 3.734375 -3.046875 3.597656 -3.550781 3.328125 -3.90625 C 3.066406 -4.257812 2.671875 -4.4375 2.140625 -4.4375 L 1.5625 -4.4375 L 1.5625 -0.34375 Z "/>
</g>
</g>
</defs>
<g fill="rgb(87.843137%, 32.156863%, 32.156863%)" fill-opacity="1">
<use xlink:href="#glyph-0-0" x="30" y="27.126953"/>
<use xlink:href="#glyph-0-1" x="34" y="27.126953"/>
<use xlink:href="#glyph-0-2" x="38" y="27.126953"/>
<use xlink:href="#glyph-0-3" x="43" y="27.126953"/>
<use xlink:href="#glyph-0-4" x="48" y="27.126953"/>
</g>
</svg>
