<?xml version="1.0" encoding="UTF-8"?>
<svg xmlns="http://www.w3.org/2000/svg" xmlns:xlink="http://www.w3.org/1999/xlink" width="1920" height="1080" viewBox="0 0 1920 1080">
<defs>
<g>
<g id="glyph-0-0">
<path d="M 0.375 0 L 0.375 -0.15625 L 0.640625 -0.15625 C 0.722656 -0.15625 0.796875 -0.171875 0.859375 -0.203125 C 0.921875 -0.242188 0.953125 -0.320312 0.953125 -0.4375 L 0.953125 -2.484375 C 0.859375 -2.367188 0.769531 -2.269531 0.6875 -2.1875 C 0.601562 -2.113281 0.523438 -2.078125 0.453125 -2.078125 C 0.390625 -2.078125 0.335938 -2.097656 0.296875 -2.140625 C 0.265625 -2.179688 0.25 -2.234375 0.25 -2.296875 C 0.332031 -2.316406 0.414062 -2.347656 0.5 -2.390625 C 0.59375 -2.429688 0.703125 -2.5 0.828125 -2.59375 L 1.09375 -2.796875 L 1.34375 -2.796875 L 1.34375 -0.4375 C 1.34375 -0.320312 1.375 -0.242188 1.4375 -0.203125 C 1.5 -0.171875 1.578125 -0.15625 1.671875 -0.15625 L 1.859375 -0.15625 L 1.859375 0 Z "/>
</g>
<g id="glyph-0-1">
<path d="M 1.09375 0.03125 C 0.875 0.03125 0.695312 -0.0234375 0.5625 -0.140625 C 0.425781 -0.253906 0.328125 -0.421875 0.265625 -0.640625 C 0.203125 -0.859375 0.171875 -1.109375 0.171875 -1.390625 C 0.171875 -1.679688 0.203125 -1.929688 0.265625 -2.140625 C 0.328125 -2.359375 0.425781 -2.523438 0.5625 -2.640625 C 0.695312 -2.753906 0.875 -2.8125 1.09375 -2.8125 C 1.289062 -2.8125 1.457031 -2.753906 1.59375 -2.640625 C 1.726562 -2.523438 1.828125 -2.359375 1.890625 -2.140625 C 1.960938 -1.929688 2 -1.679688 2 -1.390625 C 2 -1.109375 1.960938 -0.859375 1.890625 -0.640625 C 1.828125 -0.421875 1.726562 -0.253906 1.59375 -0.140625 C 1.457031 -0.0234375 1.289062 0.03125 1.09375 0.03125 Z M 1.09375 -0.171875 C 1.28125 -0.171875 1.410156 -0.273438 1.484375 -0.484375 C 1.554688 -0.703125 1.59375 -1.003906 1.59375 -1.390625 C 1.59375 -1.773438 1.554688 -2.070312 1.484375 -2.28125 C 1.410156 -2.5 1.28125 -2.609375 1.09375 -2.609375 C 0.90625 -2.609375 0.769531 -2.5 0.6875 -2.28125 C 0.613281 -2.070312 0.578125 -1.773438 0.578125 -1.390625 C 0.578125 -1.003906 0.613281 -0.703125 0.6875 -0.484375 C 0.769531 -0.273438 0.90625 -0.171875 1.09375 -0.171875 Z "/>
</g>
</g>
</defs>
<g fill="rgb(100%, 100%, 100%)" fill-opacity="1">
<use xlink:href="#glyph-0-0" x="30" y="24.158203"/>
<use xlink:href="#glyph-0-1" x="32" y="24.158203"/>
</g>
</svg>
