<?xml version="1.0" encoding="UTF-8"?>
<svg xmlns="http://www.w3.org/2000/svg" xmlns:xlink="http://www.w3.org/1999/xlink" width="1920" height="1080" viewBox="0 0 1920 1080">
<defs>
<g>
<g id="glyph-0-0">
<path d="M 1.0625 0.03125 C 0.863281 0.03125 0.695312 0 0.5625 -0.0625 C 0.4375 -0.125 0.335938 -0.210938 0.265625 -0.328125 C 0.203125 -0.441406 0.171875 -0.566406 0.171875 -0.703125 C 0.171875 -0.828125 0.195312 -0.929688 0.25 -1.015625 C 0.300781 -1.097656 0.375 -1.171875 0.46875 -1.234375 C 0.5625 -1.296875 0.660156 -1.351562 0.765625 -1.40625 C 0.617188 -1.488281 0.5 -1.585938 0.40625 -1.703125 C 0.3125 -1.816406 0.265625 -1.957031 0.265625 -2.125 C 0.265625 -2.238281 0.289062 -2.347656 0.34375 -2.453125 C 0.40625 -2.566406 0.5 -2.65625 0.625 -2.71875 C 0.75 -2.78125 0.910156 -2.8125 1.109375 -2.8125 C 1.347656 -2.8125 1.535156 -2.75 1.671875 -2.625 C 1.804688 -2.5 1.875 -2.335938 1.875 -2.140625 C 1.875 -1.972656 1.828125 -1.84375 1.734375 -1.75 C 1.640625 -1.65625 1.507812 -1.566406 1.34375 -1.484375 C 1.539062 -1.398438 1.695312 -1.296875 1.8125 -1.171875 C 1.9375 -1.054688 2 -0.914062 2 -0.75 C 2 -0.5 1.910156 -0.304688 1.734375 -0.171875 C 1.566406 -0.0351562 1.34375 0.03125 1.0625 0.03125 Z M 1.15625 -1.578125 C 1.300781 -1.648438 1.398438 -1.726562 1.453125 -1.8125 C 1.503906 -1.90625 1.53125 -2.019531 1.53125 -2.15625 C 1.53125 -2.238281 1.515625 -2.316406 1.484375 -2.390625 C 1.453125 -2.460938 1.40625 -2.519531 1.34375 -2.5625 C 1.28125 -2.613281 1.191406 -2.640625 1.078125 -2.640625 C 0.941406 -2.640625 0.832031 -2.59375 0.75 -2.5 C 0.675781 -2.414062 0.640625 -2.304688 0.640625 -2.171875 C 0.640625 -2.023438 0.679688 -1.910156 0.765625 -1.828125 C 0.859375 -1.742188 0.988281 -1.660156 1.15625 -1.578125 Z M 1.078125 -0.140625 C 1.242188 -0.140625 1.378906 -0.1875 1.484375 -0.28125 C 1.585938 -0.382812 1.640625 -0.507812 1.640625 -0.65625 C 1.640625 -0.789062 1.585938 -0.90625 1.484375 -1 C 1.378906 -1.101562 1.203125 -1.207031 0.953125 -1.3125 C 0.835938 -1.25 0.742188 -1.164062 0.671875 -1.0625 C 0.597656 -0.957031 0.5625 -0.832031 0.5625 -0.6875 C 0.5625 -0.519531 0.601562 -0.382812 0.6875 -0.28125 C 0.78125 -0.1875 0.910156 -0.140625 1.078125 -0.140625 Z "/>
</g>
</g>
</defs>
<g fill="rgb(100%, 100%, 100%)" fill-opacity="1">
<use xlink:href="#glyph-0-0" x="30" y="24.158203"/>
</g>
</svg>
