<?xml version="1.0" encoding="UTF-8"?>
<svg xmlns="http://www.w3.org/2000/svg" xmlns:xlink="http://www.w3.org/1999/xlink" width="1920" height="1080" viewBox="0 0 1920 1080">
<defs>
<g>
<g id="glyph-0-0">
<path d="M 0.953125 0.03125 C 0.753906 0.03125 0.601562 0.015625 0.5 -0.015625 C 0.394531 -0.0546875 0.320312 -0.109375 0.28125 -0.171875 C 0.238281 -0.234375 0.21875 -0.296875 0.21875 -0.359375 C 0.21875 -0.429688 0.234375 -0.484375 0.265625 -0.515625 C 0.304688 -0.554688 0.367188 -0.578125 0.453125 -0.578125 C 0.453125 -0.472656 0.488281 -0.378906 0.5625 -0.296875 C 0.644531 -0.222656 0.769531 -0.1875 0.9375 -0.1875 C 1.039062 -0.1875 1.132812 -0.207031 1.21875 -0.25 C 1.300781 -0.289062 1.363281 -0.359375 1.40625 -0.453125 C 1.457031 -0.554688 1.484375 -0.6875 1.484375 -0.84375 C 1.484375 -1.050781 1.425781 -1.203125 1.3125 -1.296875 C 1.207031 -1.398438 1.066406 -1.453125 0.890625 -1.453125 C 0.753906 -1.453125 0.648438 -1.441406 0.578125 -1.421875 C 0.515625 -1.410156 0.460938 -1.394531 0.421875 -1.375 L 0.328125 -1.390625 L 0.453125 -2.78125 L 1.75 -2.78125 L 1.765625 -2.1875 L 1.609375 -2.1875 L 1.59375 -2.3125 C 1.582031 -2.363281 1.5625 -2.398438 1.53125 -2.421875 C 1.507812 -2.453125 1.457031 -2.46875 1.375 -2.46875 L 0.625 -2.46875 L 0.546875 -1.609375 C 0.585938 -1.617188 0.644531 -1.628906 0.71875 -1.640625 C 0.789062 -1.660156 0.882812 -1.671875 1 -1.671875 C 1.164062 -1.671875 1.316406 -1.640625 1.453125 -1.578125 C 1.585938 -1.515625 1.691406 -1.421875 1.765625 -1.296875 C 1.847656 -1.179688 1.890625 -1.03125 1.890625 -0.84375 C 1.890625 -0.664062 1.851562 -0.507812 1.78125 -0.375 C 1.707031 -0.25 1.597656 -0.148438 1.453125 -0.078125 C 1.316406 -0.00390625 1.148438 0.03125 0.953125 0.03125 Z "/>
</g>
</g>
</defs>
<g fill="rgb(100%, 100%, 100%)" fill-opacity="1">
<use xlink:href="#glyph-0-0" x="30" y="24.158203"/>
</g>
</svg>
