<?xml version="1.0" encoding="UTF-8"?>
<svg xmlns="http://www.w3.org/2000/svg" xmlns:xlink="http://www.w3.org/1999/xlink" width="1920" height="1080" viewBox="0 0 1920 1080">
<defs>
<g>
<g id="glyph-0-0">
<path d="M 3.125 0.078125 C 2.519531 0.078125 2.019531 -0.0390625 1.625 -0.28125 C 1.226562 -0.519531 0.929688 -0.851562 0.734375 -1.28125 C 0.535156 -1.707031 0.4375 -2.207031 0.4375 -2.78125 C 0.4375 -3.34375 0.539062 -3.835938 0.75 -4.265625 C 0.957031 -4.691406 1.257812 -5.023438 1.65625 -5.265625 C 2.0625 -5.515625 2.566406 -5.640625 3.171875 -5.640625 C 3.742188 -5.640625 4.171875 -5.554688 4.453125 -5.390625 C 4.742188 -5.222656 4.890625 -5.015625 4.890625 -4.765625 C 4.890625 -4.597656 4.816406 -4.460938 4.671875 -4.359375 C 4.535156 -4.265625 4.363281 -4.21875 4.15625 -4.21875 C 4.15625 -4.375 4.125 -4.53125 4.0625 -4.6875 C 4 -4.84375 3.890625 -4.96875 3.734375 -5.0625 C 3.585938 -5.164062 3.390625 -5.21875 3.140625 -5.21875 C 2.472656 -5.21875 2 -5.003906 1.71875 -4.578125 C 1.445312 -4.160156 1.3125 -3.5625 1.3125 -2.78125 C 1.3125 -2.007812 1.457031 -1.410156 1.75 -0.984375 C 2.039062 -0.566406 2.539062 -0.359375 3.25 -0.359375 C 3.394531 -0.359375 3.535156 -0.363281 3.671875 -0.375 C 3.816406 -0.394531 3.941406 -0.421875 4.046875 -0.453125 L 4.046875 -1.71875 C 4.046875 -1.9375 3.984375 -2.078125 3.859375 -2.140625 C 3.734375 -2.203125 3.585938 -2.234375 3.421875 -2.234375 L 3.390625 -2.234375 L 3.390625 -2.5625 L 5.40625 -2.5625 L 5.40625 -2.234375 L 5.375 -2.234375 C 5.226562 -2.234375 5.101562 -2.203125 5 -2.140625 C 4.894531 -2.078125 4.84375 -1.925781 4.84375 -1.6875 L 4.84375 -0.28125 C 4.582031 -0.15625 4.3125 -0.0625 4.03125 0 C 3.757812 0.0507812 3.457031 0.078125 3.125 0.078125 Z "/>
</g>
<g id="glyph-0-1">
<path d="M 0.296875 0 L 0.296875 -0.328125 L 0.390625 -0.328125 C 0.566406 -0.328125 0.71875 -0.359375 0.84375 -0.421875 C 0.96875 -0.484375 1.03125 -0.640625 1.03125 -0.890625 L 1.03125 -4.703125 C 1.03125 -4.929688 0.96875 -5.078125 0.84375 -5.140625 C 0.71875 -5.203125 0.566406 -5.234375 0.390625 -5.234375 L 0.296875 -5.234375 L 0.296875 -5.5625 L 1.71875 -5.5625 L 4.5 -1.25 L 4.5 -4.703125 C 4.5 -4.929688 4.4375 -5.078125 4.3125 -5.140625 C 4.1875 -5.203125 4.039062 -5.234375 3.875 -5.234375 L 3.765625 -5.234375 L 3.765625 -5.5625 L 5.71875 -5.5625 L 5.71875 -5.234375 L 5.625 -5.234375 C 5.445312 -5.234375 5.296875 -5.195312 5.171875 -5.125 C 5.046875 -5.0625 4.984375 -4.910156 4.984375 -4.671875 L 4.984375 0 L 4.421875 0 L 1.515625 -4.484375 L 1.515625 -0.890625 C 1.515625 -0.640625 1.578125 -0.484375 1.703125 -0.421875 C 1.828125 -0.359375 1.972656 -0.328125 2.140625 -0.328125 L 2.25 -0.328125 L 2.25 0 Z "/>
</g>
<g id="glyph-0-2">
</g>
<g id="glyph-0-3">
<path d="M 0.296875 0 L 0.296875 -0.328125 L 0.390625 -0.328125 C 0.566406 -0.328125 0.71875 -0.351562 0.84375 -0.40625 C 0.96875 -0.46875 1.03125 -0.613281 1.03125 -0.84375 L 1.03125 -4.703125 C 1.03125 -4.929688 0.96875 -5.078125 0.84375 -5.140625 C 0.71875 -5.203125 0.566406 -5.234375 0.390625 -5.234375 L 0.296875 -5.234375 L 0.296875 -5.5625 L 2.390625 -5.5625 C 3.722656 -5.5625 4.390625 -5.054688 4.390625 -4.046875 C 4.390625 -3.773438 4.332031 -3.546875 4.21875 -3.359375 C 4.101562 -3.171875 3.957031 -3.019531 3.78125 -2.90625 C 3.613281 -2.789062 3.4375 -2.703125 3.25 -2.640625 L 4.3125 -0.953125 C 4.445312 -0.742188 4.578125 -0.585938 4.703125 -0.484375 C 4.828125 -0.378906 4.96875 -0.328125 5.125 -0.328125 L 5.15625 -0.328125 L 5.15625 0 L 5.046875 0 C 4.722656 0 4.46875 -0.015625 4.28125 -0.046875 C 4.101562 -0.078125 3.960938 -0.144531 3.859375 -0.25 C 3.753906 -0.351562 3.640625 -0.503906 3.515625 -0.703125 L 2.46875 -2.453125 L 1.828125 -2.453125 L 1.828125 -0.84375 C 1.828125 -0.613281 1.890625 -0.46875 2.015625 -0.40625 C 2.140625 -0.351562 2.285156 -0.328125 2.453125 -0.328125 L 2.5625 -0.328125 L 2.5625 0 Z M 2.359375 -2.8125 C 2.816406 -2.8125 3.128906 -2.910156 3.296875 -3.109375 C 3.472656 -3.316406 3.5625 -3.625 3.5625 -4.03125 C 3.5625 -4.445312 3.46875 -4.742188 3.28125 -4.921875 C 3.101562 -5.097656 2.789062 -5.1875 2.34375 -5.1875 L 1.828125 -5.1875 L 1.828125 -2.8125 Z "/>
</g>
<g id="glyph-0-4">
<path d="M 2.234375 0.078125 C 1.671875 0.078125 1.226562 -0.109375 0.90625 -0.484375 C 0.582031 -0.859375 0.421875 -1.378906 0.421875 -2.046875 C 0.421875 -2.773438 0.570312 -3.320312 0.875 -3.6875 C 1.175781 -4.0625 1.601562 -4.25 2.15625 -4.25 C 2.65625 -4.25 3.050781 -4.09375 3.34375 -3.78125 C 3.632812 -3.46875 3.78125 -3.003906 3.78125 -2.390625 L 3.78125 -2.03125 L 1.1875 -2.03125 C 1.195312 -1.46875 1.296875 -1.054688 1.484375 -0.796875 C 1.679688 -0.535156 1.96875 -0.40625 2.34375 -0.40625 C 2.613281 -0.40625 2.84375 -0.460938 3.03125 -0.578125 C 3.21875 -0.691406 3.359375 -0.816406 3.453125 -0.953125 C 3.492188 -0.941406 3.53125 -0.910156 3.5625 -0.859375 C 3.59375 -0.816406 3.609375 -0.757812 3.609375 -0.6875 C 3.609375 -0.582031 3.554688 -0.46875 3.453125 -0.34375 C 3.359375 -0.226562 3.207031 -0.128906 3 -0.046875 C 2.800781 0.0351562 2.546875 0.078125 2.234375 0.078125 Z M 2.984375 -2.453125 C 2.984375 -2.867188 2.921875 -3.203125 2.796875 -3.453125 C 2.671875 -3.703125 2.453125 -3.828125 2.140625 -3.828125 C 1.859375 -3.828125 1.632812 -3.707031 1.46875 -3.46875 C 1.3125 -3.238281 1.222656 -2.898438 1.203125 -2.453125 Z "/>
</g>
<g id="glyph-0-5">
<path d="M 2.203125 0.078125 C 1.859375 0.078125 1.550781 0.00390625 1.28125 -0.140625 C 1.019531 -0.285156 0.8125 -0.515625 0.65625 -0.828125 C 0.5 -1.140625 0.421875 -1.550781 0.421875 -2.0625 C 0.421875 -2.613281 0.5 -3.050781 0.65625 -3.375 C 0.8125 -3.695312 1.019531 -3.921875 1.28125 -4.046875 C 1.539062 -4.179688 1.832031 -4.25 2.15625 -4.25 C 2.375 -4.25 2.585938 -4.21875 2.796875 -4.15625 C 3.003906 -4.101562 3.175781 -4.019531 3.3125 -3.90625 C 3.445312 -3.789062 3.515625 -3.640625 3.515625 -3.453125 C 3.515625 -3.273438 3.457031 -3.148438 3.34375 -3.078125 C 3.226562 -3.003906 3.054688 -2.96875 2.828125 -2.96875 C 2.828125 -3.207031 2.78125 -3.414062 2.6875 -3.59375 C 2.59375 -3.769531 2.414062 -3.859375 2.15625 -3.859375 C 1.96875 -3.859375 1.796875 -3.804688 1.640625 -3.703125 C 1.492188 -3.597656 1.378906 -3.414062 1.296875 -3.15625 C 1.222656 -2.894531 1.1875 -2.53125 1.1875 -2.0625 C 1.1875 -1.519531 1.273438 -1.109375 1.453125 -0.828125 C 1.640625 -0.554688 1.941406 -0.421875 2.359375 -0.421875 C 2.597656 -0.421875 2.804688 -0.472656 2.984375 -0.578125 C 3.171875 -0.679688 3.304688 -0.8125 3.390625 -0.96875 C 3.484375 -0.894531 3.53125 -0.796875 3.53125 -0.671875 C 3.53125 -0.546875 3.476562 -0.425781 3.375 -0.3125 C 3.28125 -0.195312 3.132812 -0.101562 2.9375 -0.03125 C 2.738281 0.0390625 2.492188 0.078125 2.203125 0.078125 Z "/>
</g>
<g id="glyph-0-6">
<path d="M 0.140625 1.875 L 0.140625 1.546875 L 0.203125 1.546875 C 0.378906 1.546875 0.53125 1.507812 0.65625 1.4375 C 0.78125 1.375 0.84375 1.222656 0.84375 0.984375 L 0.84375 -3.3125 C 0.84375 -3.539062 0.773438 -3.6875 0.640625 -3.75 C 0.515625 -3.8125 0.367188 -3.84375 0.203125 -3.84375 L 0.09375 -3.84375 L 0.09375 -4.171875 L 1.46875 -4.171875 L 1.546875 -3.46875 L 1.578125 -3.46875 C 1.691406 -3.707031 1.84375 -3.894531 2.03125 -4.03125 C 2.21875 -4.175781 2.460938 -4.25 2.765625 -4.25 C 3.273438 -4.25 3.664062 -4.078125 3.9375 -3.734375 C 4.207031 -3.390625 4.34375 -2.84375 4.34375 -2.09375 C 4.34375 -1.34375 4.207031 -0.789062 3.9375 -0.4375 C 3.664062 -0.09375 3.273438 0.078125 2.765625 0.078125 C 2.460938 0.078125 2.21875 0.015625 2.03125 -0.109375 C 1.84375 -0.234375 1.691406 -0.398438 1.578125 -0.609375 L 1.546875 -0.609375 C 1.554688 -0.453125 1.5625 -0.289062 1.5625 -0.125 C 1.570312 0.0390625 1.578125 0.171875 1.578125 0.265625 L 1.578125 1.015625 C 1.578125 1.242188 1.640625 1.390625 1.765625 1.453125 C 1.890625 1.515625 2.035156 1.546875 2.203125 1.546875 L 2.234375 1.546875 L 2.234375 1.875 Z M 2.640625 -0.421875 C 2.984375 -0.421875 3.226562 -0.5625 3.375 -0.84375 C 3.519531 -1.132812 3.59375 -1.550781 3.59375 -2.09375 C 3.59375 -2.65625 3.519531 -3.070312 3.375 -3.34375 C 3.226562 -3.613281 2.976562 -3.75 2.625 -3.75 C 2.21875 -3.75 1.941406 -3.613281 1.796875 -3.34375 C 1.648438 -3.070312 1.578125 -2.65625 1.578125 -2.09375 C 1.578125 -1.550781 1.648438 -1.132812 1.796875 -0.84375 C 1.941406 -0.5625 2.222656 -0.421875 2.640625 -0.421875 Z "/>
</g>
<g id="glyph-0-7">
<path d="M 1.875 0.078125 C 1.476562 0.078125 1.1875 -0.0078125 1 -0.1875 C 0.820312 -0.363281 0.734375 -0.675781 0.734375 -1.125 L 0.734375 -3.734375 L 0.140625 -3.734375 L 0.140625 -4.03125 C 0.234375 -4.03125 0.335938 -4.050781 0.453125 -4.09375 C 0.566406 -4.132812 0.664062 -4.195312 0.75 -4.28125 C 0.84375 -4.375 0.914062 -4.488281 0.96875 -4.625 C 1.03125 -4.757812 1.078125 -4.925781 1.109375 -5.125 L 1.46875 -5.125 L 1.46875 -4.171875 L 2.484375 -4.171875 L 2.484375 -3.734375 L 1.46875 -3.734375 L 1.46875 -1.109375 C 1.46875 -0.835938 1.519531 -0.640625 1.625 -0.515625 C 1.738281 -0.390625 1.882812 -0.328125 2.0625 -0.328125 C 2.15625 -0.328125 2.238281 -0.332031 2.3125 -0.34375 C 2.394531 -0.351562 2.476562 -0.367188 2.5625 -0.390625 L 2.5625 -0.046875 C 2.488281 -0.015625 2.382812 0.0078125 2.25 0.03125 C 2.113281 0.0625 1.988281 0.078125 1.875 0.078125 Z "/>
</g>
<g id="glyph-0-8">
<path d="M 1.25 -4.953125 C 1.125 -4.953125 1.019531 -4.988281 0.9375 -5.0625 C 0.851562 -5.132812 0.8125 -5.257812 0.8125 -5.4375 C 0.8125 -5.613281 0.851562 -5.734375 0.9375 -5.796875 C 1.019531 -5.867188 1.125 -5.90625 1.25 -5.90625 C 1.375 -5.90625 1.476562 -5.867188 1.5625 -5.796875 C 1.65625 -5.734375 1.703125 -5.613281 1.703125 -5.4375 C 1.703125 -5.257812 1.65625 -5.132812 1.5625 -5.0625 C 1.476562 -4.988281 1.375 -4.953125 1.25 -4.953125 Z M 0.171875 0 L 0.171875 -0.328125 L 0.28125 -0.328125 C 0.445312 -0.328125 0.59375 -0.351562 0.71875 -0.40625 C 0.851562 -0.46875 0.921875 -0.613281 0.921875 -0.84375 L 0.921875 -3.3125 C 0.921875 -3.539062 0.851562 -3.6875 0.71875 -3.75 C 0.59375 -3.8125 0.445312 -3.84375 0.28125 -3.84375 L 0.25 -3.84375 L 0.25 -4.171875 L 1.65625 -4.171875 L 1.65625 -0.890625 C 1.65625 -0.640625 1.710938 -0.484375 1.828125 -0.421875 C 1.953125 -0.359375 2.101562 -0.328125 2.28125 -0.328125 L 2.390625 -0.328125 L 2.390625 0 Z "/>
</g>
<g id="glyph-0-9">
<path d="M 0.609375 -3.4375 C 0.546875 -3.601562 0.472656 -3.710938 0.390625 -3.765625 C 0.316406 -3.816406 0.195312 -3.84375 0.03125 -3.84375 L 0.03125 -4.171875 L 1.96875 -4.171875 L 1.96875 -3.84375 L 1.875 -3.84375 C 1.5625 -3.84375 1.40625 -3.71875 1.40625 -3.46875 C 1.40625 -3.425781 1.410156 -3.378906 1.421875 -3.328125 C 1.429688 -3.285156 1.445312 -3.238281 1.46875 -3.1875 L 2 -1.71875 C 2.070312 -1.519531 2.140625 -1.304688 2.203125 -1.078125 C 2.273438 -0.859375 2.328125 -0.679688 2.359375 -0.546875 C 2.390625 -0.648438 2.445312 -0.804688 2.53125 -1.015625 C 2.613281 -1.222656 2.6875 -1.421875 2.75 -1.609375 L 3.3125 -3.125 C 3.363281 -3.25 3.390625 -3.363281 3.390625 -3.46875 C 3.390625 -3.71875 3.21875 -3.84375 2.875 -3.84375 L 2.8125 -3.84375 L 2.8125 -4.171875 L 4.484375 -4.171875 L 4.484375 -3.84375 L 4.390625 -3.84375 C 4.234375 -3.84375 4.117188 -3.800781 4.046875 -3.71875 C 3.972656 -3.644531 3.890625 -3.484375 3.796875 -3.234375 L 2.5625 0 L 1.859375 0 Z "/>
</g>
<g id="glyph-0-10">
<path d="M 0.296875 0 L 0.296875 -0.328125 L 0.390625 -0.328125 C 0.566406 -0.328125 0.71875 -0.351562 0.84375 -0.40625 C 0.96875 -0.46875 1.03125 -0.613281 1.03125 -0.84375 L 1.03125 -4.703125 C 1.03125 -4.929688 0.96875 -5.078125 0.84375 -5.140625 C 0.71875 -5.203125 0.566406 -5.234375 0.390625 -5.234375 L 0.296875 -5.234375 L 0.296875 -5.5625 L 4.21875 -5.5625 L 4.25 -4.1875 L 3.859375 -4.1875 L 3.8125 -4.53125 C 3.789062 -4.707031 3.726562 -4.859375 3.625 -4.984375 C 3.519531 -5.109375 3.34375 -5.171875 3.09375 -5.171875 L 1.828125 -5.171875 L 1.828125 -2.921875 L 3.703125 -2.921875 L 3.703125 -2.53125 L 1.828125 -2.53125 L 1.828125 -0.890625 C 1.828125 -0.640625 1.882812 -0.484375 2 -0.421875 C 2.125 -0.359375 2.273438 -0.328125 2.453125 -0.328125 L 2.71875 -0.328125 L 2.71875 0 Z "/>
</g>
<g id="glyph-0-11">
<path d="M 0.09375 0 L 0.09375 -0.328125 L 0.203125 -0.328125 C 0.378906 -0.328125 0.53125 -0.359375 0.65625 -0.421875 C 0.78125 -0.484375 0.84375 -0.640625 0.84375 -0.890625 L 0.84375 -5.0625 C 0.84375 -5.289062 0.773438 -5.4375 0.640625 -5.5 C 0.515625 -5.5625 0.367188 -5.59375 0.203125 -5.59375 L 0.09375 -5.59375 L 0.09375 -5.90625 L 1.578125 -5.90625 L 1.578125 -0.890625 C 1.578125 -0.640625 1.640625 -0.484375 1.765625 -0.421875 C 1.890625 -0.359375 2.035156 -0.328125 2.203125 -0.328125 L 2.3125 -0.328125 L 2.3125 0 Z "/>
</g>
<g id="glyph-0-12">
<path d="M 2.015625 0.078125 C 1.503906 0.078125 1.109375 -0.09375 0.828125 -0.4375 C 0.554688 -0.78125 0.421875 -1.328125 0.421875 -2.078125 C 0.421875 -2.828125 0.554688 -3.375 0.828125 -3.71875 C 1.109375 -4.070312 1.503906 -4.25 2.015625 -4.25 C 2.316406 -4.25 2.5625 -4.1875 2.75 -4.0625 C 2.9375 -3.9375 3.085938 -3.769531 3.203125 -3.5625 L 3.25 -3.5625 C 3.238281 -3.695312 3.226562 -3.84375 3.21875 -4 C 3.207031 -4.15625 3.203125 -4.296875 3.203125 -4.421875 L 3.203125 -5.0625 C 3.203125 -5.289062 3.140625 -5.4375 3.015625 -5.5 C 2.890625 -5.5625 2.738281 -5.59375 2.5625 -5.59375 L 2.5 -5.59375 L 2.5 -5.90625 L 3.9375 -5.90625 L 3.9375 -0.859375 C 3.9375 -0.628906 4 -0.484375 4.125 -0.421875 C 4.25 -0.359375 4.398438 -0.328125 4.578125 -0.328125 L 4.640625 -0.328125 L 4.640625 0 L 3.328125 0 L 3.234375 -0.703125 L 3.203125 -0.703125 C 3.085938 -0.460938 2.9375 -0.269531 2.75 -0.125 C 2.5625 0.0078125 2.316406 0.078125 2.015625 0.078125 Z M 2.140625 -0.421875 C 2.546875 -0.421875 2.820312 -0.554688 2.96875 -0.828125 C 3.125 -1.097656 3.203125 -1.515625 3.203125 -2.078125 C 3.203125 -2.617188 3.125 -3.03125 2.96875 -3.3125 C 2.820312 -3.601562 2.546875 -3.75 2.140625 -3.75 C 1.796875 -3.75 1.550781 -3.601562 1.40625 -3.3125 C 1.257812 -3.03125 1.1875 -2.613281 1.1875 -2.0625 C 1.1875 -1.519531 1.257812 -1.109375 1.40625 -0.828125 C 1.550781 -0.554688 1.796875 -0.421875 2.140625 -0.421875 Z "/>
</g>
</g>
</defs>
<g fill="rgb(100%, 100%, 100%)" fill-opacity="1">
<use xlink:href="#glyph-0-0" x="30" y="28.314453"/>
<use xlink:href="#glyph-0-1" x="36" y="28.314453"/>
<use xlink:href="#glyph-0-1" x="42" y="28.314453"/>
<use xlink:href="#glyph-0-2" x="48" y="28.314453"/>
<use xlink:href="#glyph-0-3" x="50" y="28.314453"/>
<use xlink:href="#glyph-0-4" x="55" y="28.314453"/>
<use xlink:href="#glyph-0-5" x="59" y="28.314453"/>
<use xlink:href="#glyph-0-4" x="63" y="28.314453"/>
<use xlink:href="#glyph-0-6" x="67" y="28.314453"/>
<use xlink:href="#glyph-0-7" x="72" y="28.314453"/>
<use xlink:href="#glyph-0-8" x="75" y="28.314453"/>
<use xlink:href="#glyph-0-9" x="77" y="28.314453"/>
<use xlink:href="#glyph-0-4" x="82" y="28.314453"/>
<use xlink:href="#glyph-0-2" x="86" y="28.314453"/>
<use xlink:href="#glyph-0-10" x="88" y="28.314453"/>
<use xlink:href="#glyph-0-8" x="93" y="28.314453"/>
<use xlink:href="#glyph-0-4" x="95" y="28.314453"/>
<use xlink:href="#glyph-0-11" x="99" y="28.314453"/>
<use xlink:href="#glyph-0-12" x="101" y="28.314453"/>
</g>
</svg>
