<?xml version="1.0" encoding="UTF-8"?>
<svg xmlns="http://www.w3.org/2000/svg" xmlns:xlink="http://www.w3.org/1999/xlink" width="1920" height="1080" viewBox="0 0 1920 1080">
<defs>
<g>
<g id="glyph-0-0">
<path d="M 1.3125 0 L 1.3125 -0.25 L 1.484375 -0.25 C 1.617188 -0.25 1.734375 -0.273438 1.828125 -0.328125 C 1.929688 -0.378906 1.984375 -0.503906 1.984375 -0.703125 L 1.984375 -1.203125 L 0.109375 -1.203125 L 0.109375 -1.453125 L 1.984375 -4.359375 L 2.578125 -4.359375 L 2.578125 -1.546875 L 3.328125 -1.546875 L 3.328125 -1.203125 L 2.578125 -1.203125 L 2.578125 -0.703125 C 2.578125 -0.503906 2.625 -0.378906 2.71875 -0.328125 C 2.8125 -0.273438 2.929688 -0.25 3.078125 -0.25 L 3.15625 -0.25 L 3.15625 0 Z M 0.546875 -1.546875 L 1.984375 -1.546875 L 1.984375 -2.671875 C 1.984375 -2.785156 1.984375 -2.914062 1.984375 -3.0625 C 1.984375 -3.21875 1.988281 -3.367188 2 -3.515625 C 2.007812 -3.671875 2.019531 -3.8125 2.03125 -3.9375 C 2.007812 -3.894531 1.972656 -3.832031 1.921875 -3.75 C 1.878906 -3.664062 1.828125 -3.578125 1.765625 -3.484375 C 1.710938 -3.390625 1.660156 -3.296875 1.609375 -3.203125 C 1.554688 -3.117188 1.515625 -3.050781 1.484375 -3 Z "/>
</g>
</g>
</defs>
<g fill="rgb(87.843137%, 32.156863%, 32.156863%)" fill-opacity="1">
<use xlink:href="#glyph-0-0" x="30" y="26.532227"/>
</g>
</svg>
