<?xml version="1.0" encoding="UTF-8"?>
<svg xmlns="http://www.w3.org/2000/svg" xmlns:xlink="http://www.w3.org/1999/xlink" width="1920" height="1080" viewBox="0 0 1920 1080">
<defs>
<g>
<g id="glyph-0-0">
<path d="M 0 0 L 0 -0.109375 L 0.046875 -0.109375 C 0.109375 -0.109375 0.148438 -0.125 0.171875 -0.15625 C 0.203125 -0.1875 0.234375 -0.242188 0.265625 -0.328125 L 0.875 -1.984375 L 1.09375 -1.984375 L 1.734375 -0.265625 C 1.742188 -0.203125 1.765625 -0.160156 1.796875 -0.140625 C 1.828125 -0.117188 1.867188 -0.109375 1.921875 -0.109375 L 1.953125 -0.109375 L 1.953125 0 L 1.203125 0 L 1.203125 -0.109375 L 1.265625 -0.109375 C 1.367188 -0.109375 1.421875 -0.15625 1.421875 -0.25 C 1.421875 -0.257812 1.421875 -0.273438 1.421875 -0.296875 C 1.421875 -0.316406 1.414062 -0.335938 1.40625 -0.359375 L 1.296875 -0.671875 L 0.5625 -0.671875 L 0.453125 -0.375 C 0.441406 -0.332031 0.4375 -0.289062 0.4375 -0.25 C 0.4375 -0.15625 0.492188 -0.109375 0.609375 -0.109375 L 0.671875 -0.109375 L 0.671875 0 Z M 0.609375 -0.796875 L 1.25 -0.796875 L 1.078125 -1.296875 C 1.046875 -1.367188 1.015625 -1.441406 0.984375 -1.515625 C 0.960938 -1.585938 0.945312 -1.660156 0.9375 -1.734375 C 0.914062 -1.660156 0.894531 -1.59375 0.875 -1.53125 C 0.851562 -1.476562 0.828125 -1.40625 0.796875 -1.3125 Z "/>
</g>
<g id="glyph-0-1">
<path d="M 0.03125 0 L 0.03125 -0.109375 L 0.078125 -0.109375 C 0.140625 -0.109375 0.191406 -0.117188 0.234375 -0.140625 C 0.273438 -0.171875 0.296875 -0.226562 0.296875 -0.3125 L 0.296875 -1.8125 C 0.296875 -1.894531 0.273438 -1.945312 0.234375 -1.96875 C 0.191406 -1.988281 0.140625 -2 0.078125 -2 L 0.03125 -2 L 0.03125 -2.109375 L 0.5625 -2.109375 L 0.5625 -0.3125 C 0.5625 -0.226562 0.582031 -0.171875 0.625 -0.140625 C 0.664062 -0.117188 0.722656 -0.109375 0.796875 -0.109375 L 0.828125 -0.109375 L 0.828125 0 Z "/>
</g>
<g id="glyph-0-2">
</g>
<g id="glyph-0-3">
<path d="M 0.578125 0.03125 C 0.441406 0.03125 0.332031 0.00390625 0.25 -0.046875 C 0.164062 -0.0976562 0.125 -0.171875 0.125 -0.265625 C 0.125 -0.316406 0.132812 -0.351562 0.15625 -0.375 C 0.175781 -0.40625 0.195312 -0.425781 0.21875 -0.4375 C 0.25 -0.445312 0.273438 -0.453125 0.296875 -0.453125 C 0.296875 -0.359375 0.316406 -0.273438 0.359375 -0.203125 C 0.410156 -0.140625 0.488281 -0.109375 0.59375 -0.109375 C 0.695312 -0.109375 0.773438 -0.128906 0.828125 -0.171875 C 0.878906 -0.222656 0.90625 -0.285156 0.90625 -0.359375 C 0.90625 -0.398438 0.894531 -0.4375 0.875 -0.46875 C 0.851562 -0.5 0.816406 -0.53125 0.765625 -0.5625 C 0.722656 -0.59375 0.65625 -0.625 0.5625 -0.65625 C 0.46875 -0.695312 0.390625 -0.738281 0.328125 -0.78125 C 0.265625 -0.820312 0.21875 -0.867188 0.1875 -0.921875 C 0.15625 -0.972656 0.140625 -1.039062 0.140625 -1.125 C 0.140625 -1.25 0.1875 -1.34375 0.28125 -1.40625 C 0.382812 -1.476562 0.515625 -1.515625 0.671875 -1.515625 C 0.804688 -1.515625 0.90625 -1.488281 0.96875 -1.4375 C 1.039062 -1.382812 1.078125 -1.328125 1.078125 -1.265625 C 1.078125 -1.210938 1.054688 -1.171875 1.015625 -1.140625 C 0.984375 -1.109375 0.9375 -1.09375 0.875 -1.09375 C 0.875 -1.1875 0.851562 -1.257812 0.8125 -1.3125 C 0.769531 -1.363281 0.710938 -1.390625 0.640625 -1.390625 C 0.546875 -1.390625 0.476562 -1.367188 0.4375 -1.328125 C 0.394531 -1.285156 0.375 -1.234375 0.375 -1.171875 C 0.375 -1.097656 0.398438 -1.039062 0.453125 -1 C 0.503906 -0.96875 0.59375 -0.925781 0.71875 -0.875 C 0.8125 -0.832031 0.890625 -0.789062 0.953125 -0.75 C 1.015625 -0.707031 1.054688 -0.660156 1.078125 -0.609375 C 1.109375 -0.554688 1.125 -0.488281 1.125 -0.40625 C 1.125 -0.257812 1.070312 -0.148438 0.96875 -0.078125 C 0.875 -0.00390625 0.742188 0.03125 0.578125 0.03125 Z "/>
</g>
<g id="glyph-0-4">
<path d="M 0.5625 0.03125 C 0.445312 0.03125 0.347656 -0.00390625 0.265625 -0.078125 C 0.179688 -0.148438 0.140625 -0.265625 0.140625 -0.421875 C 0.140625 -0.566406 0.191406 -0.671875 0.296875 -0.734375 C 0.398438 -0.804688 0.554688 -0.847656 0.765625 -0.859375 L 1 -0.875 L 1 -1.03125 C 1 -1.101562 0.992188 -1.164062 0.984375 -1.21875 C 0.972656 -1.269531 0.945312 -1.304688 0.90625 -1.328125 C 0.875 -1.359375 0.820312 -1.375 0.75 -1.375 C 0.675781 -1.375 0.617188 -1.359375 0.578125 -1.328125 C 0.546875 -1.304688 0.523438 -1.273438 0.515625 -1.234375 C 0.503906 -1.191406 0.5 -1.140625 0.5 -1.078125 C 0.414062 -1.078125 0.351562 -1.085938 0.3125 -1.109375 C 0.269531 -1.140625 0.25 -1.1875 0.25 -1.25 C 0.25 -1.3125 0.269531 -1.363281 0.3125 -1.40625 C 0.363281 -1.445312 0.425781 -1.472656 0.5 -1.484375 C 0.582031 -1.503906 0.664062 -1.515625 0.75 -1.515625 C 0.925781 -1.515625 1.054688 -1.476562 1.140625 -1.40625 C 1.222656 -1.332031 1.265625 -1.207031 1.265625 -1.03125 L 1.265625 -0.3125 C 1.265625 -0.238281 1.273438 -0.1875 1.296875 -0.15625 C 1.328125 -0.125 1.375 -0.109375 1.4375 -0.109375 L 1.453125 -0.109375 L 1.453125 0 L 1.078125 0 L 1.03125 -0.234375 L 1 -0.234375 C 0.96875 -0.179688 0.929688 -0.132812 0.890625 -0.09375 C 0.847656 -0.0625 0.800781 -0.03125 0.75 0 C 0.707031 0.0195312 0.644531 0.03125 0.5625 0.03125 Z M 0.640625 -0.140625 C 0.742188 -0.140625 0.828125 -0.175781 0.890625 -0.25 C 0.960938 -0.320312 1 -0.414062 1 -0.53125 L 1 -0.75 L 0.828125 -0.75 C 0.671875 -0.738281 0.5625 -0.703125 0.5 -0.640625 C 0.4375 -0.585938 0.40625 -0.507812 0.40625 -0.40625 C 0.40625 -0.226562 0.484375 -0.140625 0.640625 -0.140625 Z "/>
</g>
<g id="glyph-0-5">
<path d="M 0.078125 0 L 0.078125 -0.109375 L 0.109375 -0.109375 C 0.171875 -0.109375 0.222656 -0.117188 0.265625 -0.140625 C 0.304688 -0.171875 0.328125 -0.226562 0.328125 -0.3125 L 0.328125 -1.1875 C 0.328125 -1.269531 0.304688 -1.320312 0.265625 -1.34375 C 0.222656 -1.363281 0.171875 -1.375 0.109375 -1.375 L 0.109375 -1.484375 L 0.546875 -1.484375 L 0.578125 -1.265625 L 0.59375 -1.265625 C 0.644531 -1.367188 0.707031 -1.4375 0.78125 -1.46875 C 0.851562 -1.5 0.929688 -1.515625 1.015625 -1.515625 C 1.097656 -1.515625 1.175781 -1.492188 1.25 -1.453125 C 1.320312 -1.421875 1.378906 -1.359375 1.421875 -1.265625 L 1.4375 -1.265625 C 1.488281 -1.367188 1.550781 -1.4375 1.625 -1.46875 C 1.707031 -1.5 1.789062 -1.515625 1.875 -1.515625 C 2.019531 -1.515625 2.128906 -1.472656 2.203125 -1.390625 C 2.285156 -1.304688 2.328125 -1.164062 2.328125 -0.96875 L 2.328125 -0.3125 C 2.328125 -0.226562 2.347656 -0.171875 2.390625 -0.140625 C 2.429688 -0.117188 2.484375 -0.109375 2.546875 -0.109375 L 2.546875 0 L 2.0625 0 L 2.0625 -0.953125 C 2.0625 -1.078125 2.039062 -1.171875 2 -1.234375 C 1.957031 -1.304688 1.882812 -1.34375 1.78125 -1.34375 C 1.695312 -1.34375 1.632812 -1.320312 1.59375 -1.28125 C 1.550781 -1.238281 1.519531 -1.1875 1.5 -1.125 C 1.476562 -1.0625 1.46875 -0.992188 1.46875 -0.921875 L 1.46875 -0.3125 C 1.46875 -0.226562 1.484375 -0.171875 1.515625 -0.140625 C 1.554688 -0.117188 1.613281 -0.109375 1.6875 -0.109375 L 1.6875 0 L 1.203125 0 L 1.203125 -0.953125 C 1.203125 -1.078125 1.179688 -1.171875 1.140625 -1.234375 C 1.097656 -1.304688 1.019531 -1.34375 0.90625 -1.34375 C 0.832031 -1.34375 0.769531 -1.320312 0.71875 -1.28125 C 0.675781 -1.238281 0.644531 -1.179688 0.625 -1.109375 C 0.601562 -1.046875 0.59375 -0.972656 0.59375 -0.890625 L 0.59375 -0.296875 C 0.59375 -0.222656 0.613281 -0.171875 0.65625 -0.140625 C 0.695312 -0.117188 0.75 -0.109375 0.8125 -0.109375 L 0.828125 -0.109375 L 0.828125 0 Z "/>
</g>
<g id="glyph-0-6">
<path d="M 0.796875 0.03125 C 0.597656 0.03125 0.441406 -0.0351562 0.328125 -0.171875 C 0.210938 -0.304688 0.15625 -0.492188 0.15625 -0.734375 C 0.15625 -0.992188 0.207031 -1.1875 0.3125 -1.3125 C 0.414062 -1.445312 0.566406 -1.515625 0.765625 -1.515625 C 0.953125 -1.515625 1.09375 -1.457031 1.1875 -1.34375 C 1.289062 -1.238281 1.34375 -1.078125 1.34375 -0.859375 L 1.34375 -0.71875 L 0.421875 -0.71875 C 0.421875 -0.519531 0.457031 -0.375 0.53125 -0.28125 C 0.601562 -0.1875 0.707031 -0.140625 0.84375 -0.140625 C 0.9375 -0.140625 1.015625 -0.160156 1.078125 -0.203125 C 1.148438 -0.242188 1.203125 -0.289062 1.234375 -0.34375 C 1.242188 -0.332031 1.253906 -0.316406 1.265625 -0.296875 C 1.273438 -0.285156 1.28125 -0.269531 1.28125 -0.25 C 1.28125 -0.207031 1.265625 -0.164062 1.234375 -0.125 C 1.203125 -0.0820312 1.148438 -0.046875 1.078125 -0.015625 C 1.003906 0.015625 0.910156 0.03125 0.796875 0.03125 Z M 1.0625 -0.875 C 1.0625 -1.019531 1.039062 -1.140625 1 -1.234375 C 0.957031 -1.328125 0.878906 -1.375 0.765625 -1.375 C 0.660156 -1.375 0.578125 -1.328125 0.515625 -1.234375 C 0.460938 -1.148438 0.429688 -1.03125 0.421875 -0.875 Z "/>
</g>
<g id="glyph-0-7">
<path d="M 0.875 0.359375 C 0.707031 0.285156 0.566406 0.195312 0.453125 0.09375 C 0.347656 -0.0078125 0.269531 -0.140625 0.21875 -0.296875 C 0.175781 -0.460938 0.15625 -0.65625 0.15625 -0.875 C 0.15625 -1.101562 0.175781 -1.296875 0.21875 -1.453125 C 0.269531 -1.609375 0.347656 -1.738281 0.453125 -1.84375 C 0.566406 -1.957031 0.707031 -2.046875 0.875 -2.109375 L 0.875 -1.984375 C 0.75 -1.910156 0.65625 -1.816406 0.59375 -1.703125 C 0.53125 -1.585938 0.488281 -1.457031 0.46875 -1.3125 C 0.457031 -1.175781 0.453125 -1.03125 0.453125 -0.875 C 0.453125 -0.726562 0.457031 -0.582031 0.46875 -0.4375 C 0.488281 -0.300781 0.53125 -0.175781 0.59375 -0.0625 C 0.65625 0.0507812 0.75 0.148438 0.875 0.234375 Z "/>
</g>
<g id="glyph-0-8">
<path d="M 0.640625 0.671875 C 0.453125 0.671875 0.304688 0.632812 0.203125 0.5625 C 0.109375 0.488281 0.0625 0.390625 0.0625 0.265625 C 0.0625 0.148438 0.0976562 0.0664062 0.171875 0.015625 C 0.242188 -0.0351562 0.320312 -0.0703125 0.40625 -0.09375 C 0.375 -0.113281 0.34375 -0.140625 0.3125 -0.171875 C 0.28125 -0.210938 0.265625 -0.265625 0.265625 -0.328125 C 0.265625 -0.378906 0.273438 -0.425781 0.296875 -0.46875 C 0.328125 -0.507812 0.375 -0.546875 0.4375 -0.578125 C 0.351562 -0.617188 0.289062 -0.675781 0.25 -0.75 C 0.207031 -0.820312 0.1875 -0.90625 0.1875 -1 C 0.1875 -1.164062 0.226562 -1.289062 0.3125 -1.375 C 0.40625 -1.46875 0.539062 -1.515625 0.71875 -1.515625 C 0.78125 -1.515625 0.835938 -1.503906 0.890625 -1.484375 C 0.953125 -1.472656 1 -1.453125 1.03125 -1.421875 C 1.050781 -1.453125 1.082031 -1.484375 1.125 -1.515625 C 1.175781 -1.554688 1.234375 -1.578125 1.296875 -1.578125 C 1.347656 -1.578125 1.390625 -1.5625 1.421875 -1.53125 C 1.453125 -1.5 1.46875 -1.46875 1.46875 -1.4375 C 1.46875 -1.394531 1.453125 -1.359375 1.421875 -1.328125 C 1.398438 -1.296875 1.363281 -1.28125 1.3125 -1.28125 C 1.3125 -1.300781 1.304688 -1.320312 1.296875 -1.34375 C 1.285156 -1.363281 1.257812 -1.375 1.21875 -1.375 C 1.175781 -1.375 1.140625 -1.363281 1.109375 -1.34375 C 1.140625 -1.3125 1.164062 -1.265625 1.1875 -1.203125 C 1.207031 -1.148438 1.21875 -1.085938 1.21875 -1.015625 C 1.21875 -0.878906 1.175781 -0.765625 1.09375 -0.671875 C 1.007812 -0.578125 0.882812 -0.53125 0.71875 -0.53125 C 0.6875 -0.53125 0.65625 -0.53125 0.625 -0.53125 C 0.601562 -0.539062 0.582031 -0.546875 0.5625 -0.546875 C 0.53125 -0.523438 0.5 -0.5 0.46875 -0.46875 C 0.445312 -0.445312 0.4375 -0.414062 0.4375 -0.375 C 0.4375 -0.34375 0.445312 -0.316406 0.46875 -0.296875 C 0.488281 -0.273438 0.535156 -0.265625 0.609375 -0.265625 L 0.921875 -0.265625 C 1.085938 -0.265625 1.203125 -0.222656 1.265625 -0.140625 C 1.335938 -0.0664062 1.375 0.0234375 1.375 0.140625 C 1.375 0.304688 1.3125 0.4375 1.1875 0.53125 C 1.070312 0.625 0.890625 0.671875 0.640625 0.671875 Z M 0.703125 -0.671875 C 0.796875 -0.671875 0.859375 -0.695312 0.890625 -0.75 C 0.929688 -0.800781 0.953125 -0.890625 0.953125 -1.015625 C 0.953125 -1.140625 0.929688 -1.226562 0.890625 -1.28125 C 0.859375 -1.34375 0.796875 -1.375 0.703125 -1.375 C 0.609375 -1.375 0.539062 -1.34375 0.5 -1.28125 C 0.46875 -1.226562 0.453125 -1.140625 0.453125 -1.015625 C 0.453125 -0.890625 0.46875 -0.800781 0.5 -0.75 C 0.539062 -0.695312 0.609375 -0.671875 0.703125 -0.671875 Z M 0.640625 0.53125 C 0.773438 0.53125 0.878906 0.515625 0.953125 0.484375 C 1.023438 0.453125 1.078125 0.410156 1.109375 0.359375 C 1.140625 0.316406 1.15625 0.257812 1.15625 0.1875 C 1.15625 0.101562 1.128906 0.046875 1.078125 0.015625 C 1.023438 -0.00390625 0.957031 -0.015625 0.875 -0.015625 L 0.59375 -0.015625 C 0.539062 -0.015625 0.488281 -0.0078125 0.4375 0 C 0.394531 0.0078125 0.359375 0.0351562 0.328125 0.078125 C 0.304688 0.117188 0.296875 0.175781 0.296875 0.25 C 0.296875 0.300781 0.300781 0.347656 0.3125 0.390625 C 0.332031 0.429688 0.367188 0.460938 0.421875 0.484375 C 0.472656 0.515625 0.546875 0.53125 0.640625 0.53125 Z "/>
</g>
<g id="glyph-0-9">
<path d="M 0.09375 0 L 0.09375 -0.109375 C 0.15625 -0.109375 0.207031 -0.117188 0.25 -0.140625 C 0.300781 -0.171875 0.328125 -0.226562 0.328125 -0.3125 L 0.328125 -1.1875 C 0.328125 -1.269531 0.300781 -1.320312 0.25 -1.34375 C 0.207031 -1.363281 0.15625 -1.375 0.09375 -1.375 L 0.09375 -1.484375 L 0.515625 -1.484375 L 0.578125 -1.21875 L 0.59375 -1.21875 C 0.613281 -1.269531 0.632812 -1.316406 0.65625 -1.359375 C 0.6875 -1.410156 0.722656 -1.445312 0.765625 -1.46875 C 0.816406 -1.5 0.882812 -1.515625 0.96875 -1.515625 C 1.070312 -1.515625 1.144531 -1.492188 1.1875 -1.453125 C 1.238281 -1.421875 1.265625 -1.375 1.265625 -1.3125 C 1.265625 -1.257812 1.242188 -1.210938 1.203125 -1.171875 C 1.171875 -1.140625 1.109375 -1.125 1.015625 -1.125 C 1.015625 -1.195312 1 -1.25 0.96875 -1.28125 C 0.945312 -1.3125 0.910156 -1.328125 0.859375 -1.328125 C 0.804688 -1.328125 0.757812 -1.304688 0.71875 -1.265625 C 0.6875 -1.234375 0.660156 -1.1875 0.640625 -1.125 C 0.628906 -1.0625 0.617188 -0.992188 0.609375 -0.921875 C 0.597656 -0.859375 0.59375 -0.796875 0.59375 -0.734375 L 0.59375 -0.296875 C 0.59375 -0.222656 0.613281 -0.171875 0.65625 -0.140625 C 0.695312 -0.117188 0.75 -0.109375 0.8125 -0.109375 L 0.890625 -0.109375 L 0.890625 0 Z "/>
</g>
<g id="glyph-0-10">
<path d="M 0.109375 0.53125 C 0.234375 0.53125 0.332031 0.503906 0.40625 0.453125 C 0.488281 0.410156 0.554688 0.347656 0.609375 0.265625 C 0.660156 0.179688 0.703125 0.0859375 0.734375 -0.015625 L 0.21875 -1.21875 C 0.195312 -1.28125 0.171875 -1.320312 0.140625 -1.34375 C 0.109375 -1.363281 0.0664062 -1.375 0.015625 -1.375 L 0.015625 -1.484375 L 0.671875 -1.484375 L 0.671875 -1.375 C 0.554688 -1.375 0.5 -1.328125 0.5 -1.234375 C 0.5 -1.203125 0.507812 -1.171875 0.53125 -1.140625 L 0.734375 -0.640625 C 0.742188 -0.597656 0.757812 -0.550781 0.78125 -0.5 C 0.800781 -0.445312 0.816406 -0.394531 0.828125 -0.34375 C 0.847656 -0.300781 0.859375 -0.265625 0.859375 -0.234375 C 0.867188 -0.285156 0.882812 -0.34375 0.90625 -0.40625 C 0.9375 -0.46875 0.957031 -0.523438 0.96875 -0.578125 L 1.15625 -1.125 C 1.175781 -1.164062 1.1875 -1.203125 1.1875 -1.234375 C 1.1875 -1.328125 1.125 -1.375 1 -1.375 L 1 -1.484375 L 1.578125 -1.484375 L 1.578125 -1.375 L 1.5625 -1.375 C 1.507812 -1.375 1.46875 -1.359375 1.4375 -1.328125 C 1.414062 -1.304688 1.390625 -1.25 1.359375 -1.15625 L 0.921875 0.015625 C 0.878906 0.148438 0.832031 0.257812 0.78125 0.34375 C 0.738281 0.425781 0.691406 0.488281 0.640625 0.53125 C 0.585938 0.582031 0.519531 0.617188 0.4375 0.640625 C 0.351562 0.660156 0.25 0.671875 0.125 0.671875 L 0.109375 0.671875 Z "/>
</g>
<g id="glyph-0-11">
<path d="M 0.09375 0.234375 C 0.21875 0.148438 0.3125 0.0507812 0.375 -0.0625 C 0.4375 -0.175781 0.472656 -0.300781 0.484375 -0.4375 C 0.503906 -0.582031 0.515625 -0.726562 0.515625 -0.875 C 0.515625 -1.03125 0.503906 -1.175781 0.484375 -1.3125 C 0.472656 -1.457031 0.4375 -1.585938 0.375 -1.703125 C 0.3125 -1.816406 0.21875 -1.910156 0.09375 -1.984375 L 0.09375 -2.109375 C 0.257812 -2.046875 0.394531 -1.957031 0.5 -1.84375 C 0.601562 -1.738281 0.675781 -1.609375 0.71875 -1.453125 C 0.769531 -1.296875 0.796875 -1.101562 0.796875 -0.875 C 0.796875 -0.65625 0.769531 -0.460938 0.71875 -0.296875 C 0.675781 -0.140625 0.601562 -0.0078125 0.5 0.09375 C 0.394531 0.195312 0.257812 0.285156 0.09375 0.359375 Z "/>
</g>
</g>
</defs>
<g fill="rgb(87.843137%, 32.156863%, 32.156863%)" fill-opacity="1">
<use xlink:href="#glyph-0-0" x="30" y="22.96875"/>
<use xlink:href="#glyph-0-1" x="32" y="22.96875"/>
<use xlink:href="#glyph-0-1" x="33" y="22.96875"/>
<use xlink:href="#glyph-0-2" x="34" y="22.96875"/>
<use xlink:href="#glyph-0-3" x="35" y="22.96875"/>
<use xlink:href="#glyph-0-4" x="36" y="22.96875"/>
<use xlink:href="#glyph-0-5" x="38" y="22.96875"/>
<use xlink:href="#glyph-0-6" x="41" y="22.96875"/>
<use xlink:href="#glyph-0-2" x="42" y="22.96875"/>
<use xlink:href="#glyph-0-7" x="43" y="22.96875"/>
<use xlink:href="#glyph-0-8" x="44" y="22.96875"/>
<use xlink:href="#glyph-0-9" x="45" y="22.96875"/>
<use xlink:href="#glyph-0-4" x="46" y="22.96875"/>
<use xlink:href="#glyph-0-10" x="48" y="22.96875"/>
<use xlink:href="#glyph-0-11" x="50" y="22.96875"/>
</g>
</svg>
